<svg xmlns="http://www.w3.org/2000/svg" width="30" height="30" viewBox="0 0 30 30">
  <path d="M0,11.1623697 C0,10.2785636 0.527892418,9.05263909 1.17391995,8.42917125 L9.32608005,0.56168976 C9.97441813,-0.0640079467 11.0278924,-0.06177808 11.6739199,0.56168976 L19.82608,8.42917125 C20.4744181,9.05486896 21,10.278075 21,11.1623697 L21,22.3997275 C21,23.2835336 20.2525989,24 19.3433985,24 L1.65660152,24 C0.741685737,24 0,23.2840221 0,22.3997275 L0,11.1623697 Z M3.15746567,10.2861284 C2.9396955,10.4962939 2.76315789,10.9094963 2.76315789,11.1956283 L2.76315789,20.8043717 C2.76315789,21.0965091 3.0062125,21.3333333 3.31387449,21.3333333 L17.6861255,21.3333333 C17.9902779,21.3333333 18.2368421,21.0905037 18.2368421,20.8043717 L18.2368421,11.1956283 C18.2368421,10.9034909 18.0607107,10.4966859 17.8425343,10.2861284 L10.8943078,3.58053829 C10.6765376,3.3703728 10.3238686,3.36998075 10.1056922,3.58053829 L3.15746567,10.2861284 Z M10.5,19.4666667 C7.60050508,19.4666667 5.25,17.1982427 5.25,14.4 C5.25,11.6017573 7.60050508,9.33333333 10.5,9.33333333 C13.3994949,9.33333333 15.75,11.6017573 15.75,14.4 C15.75,17.1982427 13.3994949,19.4666667 10.5,19.4666667 Z M10.5,16.8 C11.873445,16.8 12.9868421,15.7254834 12.9868421,14.4 C12.9868421,13.0745166 11.873445,12 10.5,12 C9.12655502,12 8.01315789,13.0745166 8.01315789,14.4 C8.01315789,15.7254834 9.12655502,16.8 10.5,16.8 Z" transform="translate(5 3)"/>
</svg>
