<svg xmlns="http://www.w3.org/2000/svg" width="50" fill="#FFF" height="50" viewBox="0 0 50 50">
  <path d="M31.4958791,11 L8.56318681,11 C5.49072358,11 3,13.5293004 3,16.6493506 L3,34.3506494 C3,35.8489503 3.58611978,37.2858847 4.62941969,38.3453435 C5.6727196,39.4048023 7.08773793,40 8.56318681,40 L31.4958791,40 C32.971328,40 34.3863463,39.4048023 35.4296462,38.3453435 C36.4729461,37.2858847 37.0590659,35.8489503 37.0590659,34.3506494 L37.0590659,28.8896104 L47.1346154,33.534632 L47.3818681,33.534632 L47.6909341,33.4090909 C47.8701208,33.3046694 47.9860896,33.1162455 48,32.9069264 L48,18.030303 C47.9965982,17.8204097 47.8900997,17.6261369 47.7162113,17.5126201 C47.5423229,17.3991033 47.3240652,17.3813709 47.1346154,17.465368 L37.0590659,22.1103896 L37.0590659,16.6493506 C37.0590659,13.5293004 34.5683424,11 31.4958791,11 Z M35.8228022,34.3506494 C35.8228022,36.7773551 33.8855727,38.7445887 31.4958791,38.7445887 L8.56318681,38.7445887 C6.17349318,38.7445887 4.23626374,36.7773551 4.23626374,34.3506494 L4.23626374,16.6493506 C4.23626374,14.2226449 6.17349318,12.2554113 8.56318681,12.2554113 L31.4958791,12.2554113 C33.8855727,12.2554113 35.8228022,14.2226449 35.8228022,16.6493506 L35.8228022,34.3506494 Z M46.7637363,18.9718615 L46.7637363,32.0281385 L37.0590659,27.508658 L37.0590659,23.491342 L46.7637363,18.9718615 Z"/>
</svg>
