<svg xmlns="http://www.w3.org/2000/svg" width="50" fill="#FFF" height="50" viewBox="0 0 50 50">
  <path d="M44.479,28.1226434 C44.479,25.4590229 43.9571129,22.8714516 42.9266473,20.4388303 C42.1243291,18.5442566 41.0444316,16.8046329 39.7069176,15.2513296 C39.7221275,15.2389717 39.7363867,15.2285149 39.7515965,15.2142557 C40.1993357,14.7921831 40.2211998,14.0858769 39.8000778,13.637187 C37.8484673,11.5581942 35.5726973,9.92789116 33.0383603,8.78525312 C30.4070608,7.59983744 27.6132062,7 24.7337963,7 C21.8534359,7 19.05768,7.59983744 16.4282817,8.78525312 C13.8929941,9.92789116 11.6162735,11.5591448 9.66751481,13.637187 C9.24449157,14.0868275 9.26635569,14.7921831 9.71599612,15.2142557 C9.73310718,15.2304161 9.75116884,15.2427741 9.76827989,15.2579839 C8.43361782,16.8084354 7.3537203,18.5461578 6.55425391,20.4388303 C5.52378832,22.8714516 5,25.4590229 5,28.1226434 C5,30.7862639 5.52378832,33.3709834 6.55425391,35.8074071 C6.58182172,35.8710982 6.6141426,35.9328881 6.65311777,35.989925 C6.92024031,39.5395177 9.65420621,42.4122732 13.142009,42.8913827 C13.2931567,43.3258133 13.7066738,43.6395159 14.1943387,43.6395159 C14.8084354,43.6395159 15.3084584,43.1413942 15.3084584,42.5234951 L15.3084584,28.286149 C15.3084584,27.6692005 14.809386,27.1701281 14.1943387,27.1701281 C13.6943158,27.1701281 13.2712925,27.4999912 13.1287004,27.9505823 C10.7569185,28.2823465 8.73401185,29.7187243 7.60183056,31.7254705 C7.35657214,30.5476597 7.2320417,29.3441824 7.2320417,28.1226434 C7.2320417,25.7584663 7.69404012,23.4646347 8.60758018,21.3067409 C9.48784876,19.2210938 10.7521654,17.3502854 12.3596537,15.7408959 C13.9661914,14.1343582 15.838901,12.8700415 17.9245481,11.9878717 C20.0833926,11.0743317 22.3753229,10.6132839 24.7404506,10.6132839 C27.1027264,10.6132839 29.3956074,11.0743317 31.5554025,11.9878717 C33.640099,12.8709922 35.5128086,14.1343582 37.1212475,15.7408959 C38.7277852,17.3502854 39.9930525,19.2210938 40.8714198,21.3067409 C41.7849599,23.4646347 42.2488595,25.7584663 42.2488595,28.1226434 C42.2488595,29.3023554 42.131934,30.4678082 41.9018854,31.6066438 C40.7582967,29.6635887 38.7686616,28.273791 36.4434597,27.9505823 C36.3018183,27.49809 35.8778444,27.1701281 35.3797227,27.1701281 C34.7637248,27.1701281 34.2637018,27.6682499 34.2637018,28.286149 L34.2637018,42.5253963 C34.2637018,43.1404436 34.7618235,43.6414172 35.3797227,43.6414172 C35.866437,43.6414172 36.2780529,43.3267639 36.4292005,42.8923333 C39.9959043,42.4008659 42.7764503,39.4092836 42.932351,35.748469 C42.9665731,35.6923828 42.998894,35.6334447 43.0236099,35.5707042 C43.9884832,33.2065271 44.479,30.7007086 44.479,28.1226434 Z M13.0545525,30.2263522 L13.0545525,40.617514 C10.6590052,40.1013306 8.85854228,37.9681527 8.85854228,35.4214578 C8.85854228,32.8738122 10.6599558,30.7406344 13.0545525,30.2263522 Z M36.5138052,40.617514 L36.5138052,30.2263522 C38.9093525,30.7406344 40.7098154,32.8738122 40.7098154,35.4214578 C40.7098154,37.9681527 38.9084019,40.1013306 36.5138052,40.617514 Z"/>
</svg>
