<svg xmlns="http://www.w3.org/2000/svg" width="50" height="50" viewBox="0 0 50 50">
  <path d="M38.9230769,5.19348274 C39.2751769,5.19348274 39.4633154,5.51034438 39.4615385,5.72772932 L39.4615385,18.0154005 L46.4615385,18.0154005 C46.8139615,18.020743 46.9959077,18.2960403 47,18.5496471 L47,39.3852849 C47,41.7438233 45.0694538,43.6592575 42.6923077,43.6592575 L9.30769231,43.6592575 C6.93054615,43.6592575 5,41.7438233 5,39.3852849 L5,5.72772932 C5,5.44799781 5.25652308,5.19353616 5.53846154,5.19348274 L38.9230769,5.19348274 Z M38.3846154,6.26197589 L6.07692308,6.26197589 L6.07692308,39.3852849 C6.07692308,41.170363 7.50853077,42.5907644 9.30769231,42.5907644 L39.9326923,42.5907644 C39.0057846,41.8065438 38.3846154,40.6871904 38.3846154,39.3852849 L38.3846154,6.26197589 Z M33.5384615,10.5359485 C33.8845846,10.5514416 34.0644308,10.829143 34.0769231,11.0701951 L34.0769231,18.5496471 C34.0768692,18.8293786 33.8204,19.0838937 33.5384615,19.0838937 L22.7692308,19.0838937 C22.4872923,19.0838937 22.2307692,18.8293786 22.2307692,18.5496471 L22.2307692,11.0701951 C22.2307692,10.7904636 22.4872923,10.5360019 22.7692308,10.5359485 L33.5384615,10.5359485 Z M33,11.6044416 L23.3076923,11.6044416 L23.3076923,18.0154005 L33,18.0154005 L33,11.6044416 Z M18.4615385,11.6044416 C18.7589308,11.6044416 19,11.8436238 19,12.1386882 C19,12.4337526 18.7589308,12.6729348 18.4615385,12.6729348 L10.9230769,12.6729348 C10.6256846,12.6729348 10.3846154,12.4337526 10.3846154,12.1386882 C10.3846154,11.8436238 10.6256846,11.6044416 10.9230769,11.6044416 L18.4615385,11.6044416 Z M45.9230769,19.0838937 L39.4615385,19.0838937 L39.4615385,39.3852849 C39.4615385,41.170363 40.8931462,42.5907644 42.6923077,42.5907644 C44.4914692,42.5907644 45.9230769,41.170363 45.9230769,39.3852849 L45.9230769,19.0838937 Z M18.4615385,16.9469074 C18.7589308,16.9469074 19,17.1860896 19,17.481154 C19,17.7762184 18.7589308,18.0154005 18.4615385,18.0154005 L10.9230769,18.0154005 C10.6256846,18.0154005 10.3846154,17.7762184 10.3846154,17.481154 C10.3846154,17.1860896 10.6256846,16.9469074 10.9230769,16.9469074 L18.4615385,16.9469074 Z M33.5384615,23.3578877 C33.8358538,23.3578877 34.0769231,23.5970699 34.0769231,23.8921342 C34.0769231,24.1871986 33.8358538,24.4263808 33.5384615,24.4263808 L10.9230769,24.4263808 C10.6256846,24.4263808 10.3846154,24.1871986 10.3846154,23.8921342 C10.3846154,23.5970699 10.6256846,23.3578877 10.9230769,23.3578877 L33.5384615,23.3578877 Z M33.5384615,29.2346 C33.8358538,29.2346 34.0769231,29.4737822 34.0769231,29.7688466 C34.0769231,30.063911 33.8358538,30.3030932 33.5384615,30.3030932 L10.9230769,30.3030932 C10.6256846,30.3030932 10.3846154,30.063911 10.3846154,29.7688466 C10.3846154,29.4737822 10.6256846,29.2346 10.9230769,29.2346 L33.5384615,29.2346 Z M33.5384615,35.1113123 C33.8358538,35.1113123 34.0769231,35.3504945 34.0769231,35.6455589 C34.0769231,35.9406233 33.8358538,36.1798055 33.5384615,36.1798055 L10.9230769,36.1798055 C10.6256846,36.1798055 10.3846154,35.9406233 10.3846154,35.6455589 C10.3846154,35.3504945 10.6256846,35.1113123 10.9230769,35.1113123 L33.5384615,35.1113123 Z"/>
</svg>
