
<svg width="107px" height="119px" viewBox="0 0 107 119" version="1.1" xmlns="http://www.w3.org/2000/svg" xmlns:xlink="http://www.w3.org/1999/xlink">
    <!-- Generator: Sketch 47.1 (45422) - http://www.bohemiancoding.com/sketch -->
    <desc>Created with Sketch.</desc>
    <defs></defs>
    <g id="Page-1" stroke="none" stroke-width="1" fill="none" fill-rule="evenodd">
        <g id="Artboard" transform="translate(-72.000000, -68.000000)" fill-rule="nonzero" fill="#FFFFFF">
            <g id="chronometer" transform="translate(72.000000, 68.000000)">
                <path d="M51,119 C79.1916667,119 102,96.1916667 102,68 C102,41.7916667 82.1666667,20.1166667 56.6666667,17.2833333 L56.6666667,11.3333333 L65.1666667,11.3333333 L65.1666667,0 L36.8333333,0 L36.8333333,11.3333333 L45.3333333,11.3333333 L45.3333333,17.2833333 C19.8333333,20.1166667 0,41.65 0,68 C0,96.1916667 22.8083333,119 51,119 Z M51,22.6666667 C75.9333333,22.6666667 96.3333333,43.0666667 96.3333333,68 C96.3333333,92.9333333 75.9333333,113.333333 51,113.333333 C26.0666667,113.333333 5.66666667,92.9333333 5.66666667,68 C5.66666667,43.0666667 26.0666667,22.6666667 51,22.6666667 Z" id="Shape"></path>
                <path d="M51,31 L51,68 L69,35.9807692 C63.7384615,32.85 57.5076923,31 51,31 Z" id="Shape"></path>
                <path d="M87.160804,11 L79,19.160804 C87.160804,23.9447236 94.0552764,30.839196 98.839196,39 L107,30.839196 C101.934673,22.8190955 95.040201,16.0653266 87.160804,11 Z" id="Shape"></path>
            </g>
        </g>
    </g>
</svg>