<svg xmlns="http://www.w3.org/2000/svg" xmlns:xlink="http://www.w3.org/1999/xlink" version="1.1" x="0px" y="0px" viewBox="0 0 100 125" enable-background="new 0 0 100 100" xml:space="preserve"><path d="M50,92c19.9,0,36-16.1,36-36c0-18.5-14-33.8-32-35.8V16h6V8H40v8h6v4.2c-18,2-32,17.2-32,35.8C14,75.9,30.1,92,50,92z   M50,24c17.6,0,32,14.4,32,32c0,17.6-14.4,32-32,32S18,73.6,18,56C18,38.4,32.4,24,50,24z"/><path d="M50,30v26l13-22.5C59.2,31.3,54.7,30,50,30z"/><path d="M75.8,15.8L70,21.6c5.8,3.4,10.7,8.3,14.1,14.1l5.8-5.8C86.3,24.2,81.4,19.4,75.8,15.8z"/><text x="0" y="115" fill="#000000" font-size="5px" font-weight="bold" font-family="'Helvetica Neue', Helvetica, Arial-Unicode, Arial, Sans-serif">Created by Indygo</text><text x="0" y="120" fill="#000000" font-size="5px" font-weight="bold" font-family="'Helvetica Neue', Helvetica, Arial-Unicode, Arial, Sans-serif">from the Noun Project</text></svg>