<svg xmlns="http://www.w3.org/2000/svg" width="30" height="30" viewBox="0 0 30 30">
  <path d="M21,9.87367021 C20.9659091,9.44148936 20.7954545,8.80984043 20.1818182,8.17819149 C20.1818182,8.17819149 20.1477273,8.14494681 20.1477273,8.14494681 L19.3295455,7.34707447 C19.3295455,7.31382979 19.3295455,7.31382979 19.3295455,7.28058511 L19.3295455,1.26329787 C19.3295455,0.565159574 18.75,0 18.0340909,0 L15.7840909,0 C15.0681818,0 14.4886364,0.565159574 14.4886364,1.26329787 L14.4886364,2.89228723 L12.4772727,0.997340426 C12.2045455,0.76462766 11.4204545,0.166223404 10.3977273,0.166223404 C9.61363636,0.166223404 8.89772727,0.498670213 8.25,1.13031915 L1.02272727,7.9787234 C0.681818182,8.31117021 0.443181818,8.64361702 0.306818182,8.94281915 C0.306818182,8.94281915 0.306818182,8.97606383 0.272727273,8.97606383 C0.0681818182,9.375 0,9.74069149 0,9.97340426 C0,9.97340426 0,10.0066489 0,10.0066489 L0,23.8364362 C0,24.5013298 0.545454545,25 1.19318182,25 L7.125,25 C7.80681818,25 8.31818182,24.4680851 8.31818182,23.8364362 L8.31818182,21.5757979 C8.31818182,21.5425532 8.31818182,21.5093085 8.31818182,21.4760638 L8.31818182,16.7885638 L12.6477273,16.7885638 L12.6477273,23.8031915 C12.6477273,24.4680851 13.1931818,24.9667553 13.8409091,24.9667553 L19.7045455,24.9667553 C20.3863636,24.9667553 20.8977273,24.4348404 20.8977273,23.8031915 L20.8977273,9.94015957 C21,9.90691489 21,9.87367021 21,9.87367021 Z M15.7840909,1.23005319 L18.0340909,1.26329787 L18.0340909,6.18351064 L15.75,4.05585106 L15.7840909,1.23005319 Z M9.13636364,1.99468085 C9.54545455,1.59574468 9.98863636,1.3962766 10.4318182,1.3962766 C11.0113636,1.3962766 11.4886364,1.76196809 11.625,1.89494681 L18.7840909,8.57712766 L2.21590909,8.57712766 L9.13636364,1.99468085 Z M19.7386364,23.7367021 L13.9772727,23.7367021 L13.9772727,16.1901596 C13.9772727,15.8577128 13.7045455,15.5917553 13.3636364,15.5917553 L7.73863636,15.5917553 C7.39772727,15.5917553 7.125,15.8577128 7.125,16.1901596 L7.125,21.3098404 C7.125,21.3430851 7.125,21.3763298 7.125,21.4095745 L7.125,23.7367021 L1.26136364,23.7367021 L1.26136364,10.0066489 C1.26136364,9.94015957 1.26136364,9.87367021 1.29545455,9.80718085 L19.6704545,9.80718085 C19.6704545,9.80718085 19.6704545,9.80718085 19.7045455,9.80718085 C19.7045455,9.87367021 19.7386364,9.94015957 19.7386364,9.97340426 L19.7386364,23.7367021 L19.7386364,23.7367021 Z" transform="translate(5 3)"/>
</svg>
