<svg xmlns="http://www.w3.org/2000/svg" xmlns:xlink="http://www.w3.org/1999/xlink" version="1.1" x="0px" y="0px" viewBox="0 0 100 125" style="enable-background:new 0 0 100 100;" xml:space="preserve"><path d="M58.2,68.3l-5.5,0.1l-0.2-5.5l1.9-0.1l0.1,2.3c2.4-3.7,1.4-8.7-2.3-11.1c-1.6-1.1-3.6-1.5-5.6-1.2L46.3,51  c5.4-0.9,10.4,2.8,11.3,8.2c0.4,2.6-0.2,5.2-1.8,7.4h2.4L58.2,68.3z M42.6,66.3c-3-2.8-3.3-7.5-0.8-10.7l0.1,2.5l1.9-0.1l-0.2-5.5  l-5.5,0.1v1.9h2.2C37,58.8,37.7,65,42,68.3c2.3,1.8,5.4,2.5,8.3,1.8l-0.4-1.8C47.3,68.9,44.5,68.1,42.6,66.3z M97,78.6H55.8  l-0.1,0.1c-4.8,2.1-10.3,2.1-15.1,0l-0.1-0.1H3V44.5h26.1V19.9h38.1v17.7l23.9-8.8l3.4,9.4L67.2,48.2v5.3H97V78.6z M82.7,55.3  l-5.3,5.8h7.2l5.3-5.8H82.7z M72.9,55.3l-5.3,5.8h7.2l5.3-5.8H72.9z M66.8,55.3c0.3,1,0.5,2.1,0.6,3.2l2.9-3.2H66.8z M65.3,48.9  L64,49.4c0.5,0.7,0.9,1.5,1.3,2.2L65.3,48.9z M70,45.1l-7.4-3.8l-5.4,2c1.7,0.9,3.3,2.1,4.7,3.5l0.2,0.2l1.2,0.6L70,45.1z   M83.4,33.6l7.4,3.8l1.2-0.5L90,31.2L83.4,33.6z M74.2,37l7.4,3.8l6.8-2.5L81,34.5L74.2,37z M65,40.4l7.4,3.8l6.8-2.5l-7.4-3.8  L65,40.4z M31,44.5h6.2c5.1-3.6,11.6-4.4,17.5-2.3l10.6-3.9V21.7H31V44.5z M4.9,70.8l7.7-7.8l4.8,4.9l12.1-12.2  c0.9-3.3,2.6-6.4,5-8.9l0.4-0.4h-30L4.9,70.8z M37.1,76.7c-5.2-3.7-8.3-9.7-8.3-16.1c0-0.6,0-1.2,0.1-1.7L17.4,70.5l-4.8-4.8  l-7.7,7.9v3.1L37.1,76.7z M48.1,77.5c9.3,0.1,17-7.3,17.2-16.7s-7.3-17-16.7-17.2s-17,7.3-17.2,16.7c0,0.1,0,0.2,0,0.2  C31.4,69.9,38.9,77.5,48.1,77.5C48.2,77.5,48.2,77.5,48.1,77.5L48.1,77.5z M95.1,63H67.4c-0.7,5.5-3.6,10.5-8.2,13.7h35.9V63z   M95.1,55.3h-2.7l-5.3,5.8h8L95.1,55.3z M61.9,26.5H34.5v1.9h27.4V26.5z M61.9,31.1H34.5V33h27.4V31.1z M61.9,35.8H34.5v1.9h27.4  V35.8z M19.4,55.6c-0.1-2.7-2.3-4.9-5-4.8s-4.9,2.3-4.8,5c0.1,2.7,2.2,4.8,4.9,4.8C17.2,60.6,19.4,58.3,19.4,55.6  C19.4,55.6,19.4,55.6,19.4,55.6z M17.5,55.6c0,1.7-1.4,3-3.1,2.9s-3-1.4-2.9-3.1c0-1.6,1.4-2.9,3-2.9C16.2,52.5,17.5,53.9,17.5,55.6  C17.5,55.6,17.5,55.6,17.5,55.6L17.5,55.6z"/><text x="0" y="115" fill="#000000" font-size="5px" font-weight="bold" font-family="'Helvetica Neue', Helvetica, Arial-Unicode, Arial, Sans-serif">Created by Alexander Moers</text><text x="0" y="120" fill="#000000" font-size="5px" font-weight="bold" font-family="'Helvetica Neue', Helvetica, Arial-Unicode, Arial, Sans-serif">from the Noun Project</text></svg>