
<svg width="177px" height="114px" viewBox="0 0 177 114" version="1.1" xmlns="http://www.w3.org/2000/svg" xmlns:xlink="http://www.w3.org/1999/xlink">
    <!-- Generator: Sketch 47.1 (45422) - http://www.bohemiancoding.com/sketch -->
    <desc>Created with Sketch.</desc>
    <defs></defs>
    <g id="Page-1" stroke="none" stroke-width="1" fill="none" fill-rule="evenodd">
        <g id="Artboard" transform="translate(-459.000000, -73.000000)" fill-rule="nonzero" fill="#FFFFFF">
            <g id="media" transform="translate(459.000000, 73.000000)">
                <path d="M103.940426,91.3888199 L93.5840426,91.5776398 L93.2074468,81.1925466 L96.7851064,81.0037267 L96.9734043,85.3465839 C101.492553,78.3602484 99.6095745,68.9192547 92.6425532,64.3875776 C89.6297872,62.310559 85.8638298,61.5552795 82.0978723,62.1217391 L81.5329787,58.7229814 C91.7010638,57.0236025 101.115957,64.0099379 102.810638,74.2062112 C103.56383,79.115528 102.434043,84.0248447 99.4212766,88.178882 L103.940426,88.178882 L103.940426,91.3888199 Z M74.5659574,87.6124224 C68.9170213,82.3254658 68.3521277,73.4509317 73.0595745,67.4086957 L73.2478723,72.1291925 L76.8255319,71.9403727 L76.4489362,61.5552795 L66.0925532,61.7440994 L66.0925532,65.331677 L70.2351064,65.331677 C64.0212766,73.4509317 65.3393617,85.157764 73.4361702,91.3888199 C77.7670213,94.7875776 83.6042553,96.1093168 89.0648936,94.7875776 L88.3117021,91.3888199 C83.4159574,92.5217391 78.143617,91.0111801 74.5659574,87.6124224 Z M177,110.837267 L99.4212766,110.837267 L99.2329787,111.026087 C90.1946809,114.991304 79.8382979,114.991304 70.8,111.026087 L70.6117021,110.837267 L0,110.837267 L0,46.4496894 L49.1457447,46.4496894 L49.1457447,0 L120.887234,0 L120.887234,33.421118 L165.890426,16.8049689 L172.292553,34.5540373 L120.887234,53.4360248 L120.887234,63.4434783 L177,63.4434783 L177,110.837267 Z M150.073404,66.842236 L140.093617,77.7937888 L153.651064,77.7937888 L163.630851,66.842236 L150.073404,66.842236 Z M131.620213,66.842236 L121.640426,77.7937888 L135.197872,77.7937888 L145.17766,66.842236 L131.620213,66.842236 Z M120.134043,66.842236 C120.698936,68.7304348 121.075532,70.8074534 121.26383,72.884472 L126.724468,66.842236 L120.134043,66.842236 Z M117.309574,54.757764 L114.861702,55.7018634 C115.803191,57.0236025 116.556383,58.5341615 117.309574,59.8559006 L117.309574,54.757764 Z M126.159574,47.5826087 L112.225532,40.4074534 L102.057447,44.1838509 C105.258511,45.8832298 108.271277,48.1490683 110.907447,50.7925466 L111.284043,51.1701863 L113.543617,52.3031056 L126.159574,47.5826087 Z M151.391489,25.868323 L165.325532,33.0434783 L167.585106,32.0993789 L163.819149,21.336646 L151.391489,25.868323 Z M134.068085,32.2881988 L148.002128,39.463354 L160.806383,34.7428571 L146.87234,27.5677019 L134.068085,32.2881988 Z M116.744681,38.7080745 L130.678723,45.8832298 L143.482979,41.1627329 L129.548936,33.9875776 L116.744681,38.7080745 Z M52.7234043,46.4496894 L64.3978723,46.4496894 C74.0010638,39.6521739 86.2404255,38.1416149 97.35,42.1068323 L117.309574,34.7428571 L117.309574,3.39875776 L52.7234043,3.39875776 L52.7234043,46.4496894 Z M3.57765957,96.1093168 L18.0765957,81.3813665 L27.1148936,90.6335404 L49.8989362,67.5975155 C51.593617,61.3664596 54.7946809,55.5130435 59.3138298,50.7925466 L60.0670213,50.0372671 L3.57765957,50.0372671 L3.57765957,96.1093168 Z M64.2095745,107.249689 C54.4180851,100.263354 48.5808511,88.9341615 48.5808511,76.8496894 C48.5808511,75.7167702 48.5808511,74.5838509 48.7691489,73.6397516 L27.1148936,95.5428571 L18.0765957,86.4795031 L3.57765957,101.396273 L3.57765957,107.249689 L64.2095745,107.249689 Z M84.9223404,108.760248 C102.434043,108.949068 116.932979,94.9763975 117.309574,77.2273292 C117.68617,59.4782609 103.56383,45.1279503 85.8638298,44.7503106 C68.1638298,44.3726708 53.8531915,58.5341615 53.4765957,76.2832298 C53.4765957,76.4720497 53.4765957,76.6608696 53.4765957,76.6608696 C53.4765957,94.4099379 67.5989362,108.760248 84.9223404,108.760248 C85.1106383,108.760248 85.1106383,108.760248 84.9223404,108.760248 L84.9223404,108.760248 Z M173.42234,81.3813665 L121.26383,81.3813665 C119.945745,91.7664596 114.485106,101.207453 105.823404,107.249689 L173.42234,107.249689 L173.42234,81.3813665 Z M173.42234,66.842236 L168.338298,66.842236 L158.358511,77.7937888 L173.42234,77.7937888 L173.42234,66.842236 Z M110.907447,12.4621118 L59.3138298,12.4621118 L59.3138298,16.0496894 L110.907447,16.0496894 L110.907447,12.4621118 Z M110.907447,21.1478261 L59.3138298,21.1478261 L59.3138298,24.7354037 L110.907447,24.7354037 L110.907447,21.1478261 Z M110.907447,30.0223602 L59.3138298,30.0223602 L59.3138298,33.6099379 L110.907447,33.6099379 L110.907447,30.0223602 Z M30.8808511,67.4086957 C30.6925532,62.310559 26.55,58.1565217 21.4659574,58.3453416 C16.3819149,58.5341615 12.2393617,62.6881988 12.4276596,67.7863354 C12.6159574,72.884472 16.5702128,76.8496894 21.6542553,76.8496894 C26.7382979,76.8496894 30.8808511,72.5068323 30.8808511,67.4086957 C30.8808511,67.4086957 30.8808511,67.4086957 30.8808511,67.4086957 Z M27.3031915,67.4086957 C27.3031915,70.6186335 24.6670213,73.0732919 21.4659574,72.884472 C18.2648936,72.6956522 15.8170213,70.2409938 16.0053191,67.0310559 C16.0053191,64.0099379 18.6414894,61.5552795 21.6542553,61.5552795 C24.8553191,61.5552795 27.3031915,64.1987578 27.3031915,67.4086957 C27.3031915,67.4086957 27.3031915,67.4086957 27.3031915,67.4086957 L27.3031915,67.4086957 Z" id="Shape"></path>
            </g>
        </g>
    </g>
</svg>