<svg xmlns="http://www.w3.org/2000/svg" xmlns:xlink="http://www.w3.org/1999/xlink" width="50" height="50" viewBox="0 0 50 50">
  <defs>
    <path id="pictos-duration-15-a" d="M18.1056095,2.90805082 C17.8456112,2.95644216 17.6401196,3.20136834 17.6447705,3.45795244 L17.6447705,6.75736215 C17.6448272,7.04529064 17.9149782,7.30720878 18.211957,7.30726377 L23.3166359,7.30726377 L23.3166359,11.7236336 C13.2503794,12.0172811 5.16666667,20.0230898 5.16666667,29.8532466 C5.16666667,39.8688797 13.5533704,48 23.8838224,48 C34.2143311,48 42.6009781,39.8688797 42.6009781,29.8532466 C42.6009781,25.0410026 40.6716364,20.6609757 37.5139955,17.411717 L40.3854341,14.6278291 L42.884572,17.0508716 C43.0942603,17.2518056 43.472517,17.2518056 43.6821497,17.0508716 L45.8446051,14.9543056 C46.0517983,14.751062 46.0517983,14.3843326 45.8446051,14.181034 C43.8922923,12.2882176 41.9229072,10.3790142 39.977741,8.49296164 C39.7558576,8.35202185 39.4314269,8.39040498 39.2510616,8.57891126 L37.1063591,10.6582542 C36.8884461,10.8627077 36.8884461,11.2442844 37.1063591,11.4486828 L39.5878002,13.8373455 L36.6987222,16.6384453 C33.4774997,13.700035 29.1842946,11.8617689 24.4510095,11.7236336 L24.4510095,7.30726377 L29.5556883,7.30726377 C29.8526672,7.30720878 30.1228182,7.04529064 30.1228749,6.75736215 L30.1228749,3.45795244 C30.1228182,3.17002395 29.8526672,2.90810581 29.5556883,2.90805082 L18.1056101,2.90805082 L18.1056095,2.90805082 Z M18.7791436,4.00785406 L28.9885012,4.00785406 L28.9885012,6.20746053 L18.7791436,6.20746053 L18.7791436,4.00785406 Z M39.658698,9.7474522 L44.6393331,14.5590914 L43.2745121,15.8823196 L38.3116299,11.0534685 L39.658698,9.7474522 Z M23.8838224,12.8062799 C33.6012592,12.8062799 41.4666051,20.4319417 41.4666051,29.8532466 C41.4666051,39.2745461 33.6012592,46.9001968 23.8838224,46.9001968 C14.1663856,46.9001968 6.30103974,39.2745461 6.30103974,29.8532466 C6.30103974,20.4319417 14.1663856,12.8062799 23.8838224,12.8062799 Z"/>
  </defs>
  <g fill="none" fill-rule="evenodd">
    <text fill="#000" font-family="Brown-Light, Brown" font-size="18" font-weight="300" letter-spacing="-.55">
      <tspan x="15.77" y="35">1</tspan> <tspan x="21.97" y="35" letter-spacing=".45">5</tspan>
    </text>
    <use fill="#000" fill-rule="nonzero" xlink:href="#pictos-duration-15-a"/>
  </g>
</svg>
