<svg xmlns="http://www.w3.org/2000/svg" xmlns:xlink="http://www.w3.org/1999/xlink" version="1.1" x="0px" y="0px" viewBox="0 0 100 125" enable-background="new 0 0 100 100" xml:space="preserve"><path fill="#000000" d="M59.047,4.53H39.623c-15.376,0-27.888,12.508-27.888,27.884v28.384c0,6.368,4.772,11.64,10.928,12.428v9.088  c0,7.396,6.017,13.416,13.412,13.416h26.776c7.396,0,13.412-6.02,13.412-13.416v-9.088c6.012-0.788,10.672-5.944,10.672-12.168  V32.414C86.936,17.038,74.423,4.53,59.047,4.53z M83.735,61.058c0,5-4.068,9.072-9.072,9.072h-1.6v12.184  c0,5.632-4.58,10.216-10.212,10.216H36.075c-5.632,0-10.212-4.584-10.212-10.216V70.13h-1.6c-5.145,0-9.328-4.188-9.328-9.332  V32.414c0-13.612,11.076-24.685,24.688-24.685h19.424c13.612,0,24.688,11.072,24.688,24.685V61.058z"/><path fill="#000000" d="M64.651,29.258c-6.176,0-11.2,5.024-11.2,11.2c0,6.176,5.024,11.2,11.2,11.2s11.2-5.024,11.2-11.2  C75.852,34.282,70.827,29.258,64.651,29.258z M64.651,48.458c-4.412,0-8-3.588-8-8s3.588-8,8-8s8,3.588,8,8  S69.063,48.458,64.651,48.458z"/><path fill="#000000" d="M33.647,29.258c-6.176,0-11.2,5.024-11.2,11.2c0,6.176,5.024,11.2,11.2,11.2c6.176,0,11.2-5.024,11.2-11.2  C44.848,34.282,39.823,29.258,33.647,29.258z M33.647,48.458c-4.412,0-8-3.588-8-8s3.588-8,8-8s8,3.588,8,8  S38.06,48.458,33.647,48.458z"/><path fill="#000000" d="M68.467,75.102c0,0.884-0.716,1.601-1.6,1.601h-1.6v4.468c0,0.884-0.717,1.6-1.601,1.6s-1.6-0.716-1.6-1.6  v-4.468h-4.2v4.468c0,0.884-0.716,1.6-1.6,1.6c-0.885,0-1.601-0.716-1.601-1.6v-4.468h-4.2v4.468c0,0.884-0.716,1.6-1.6,1.6  s-1.6-0.716-1.6-1.6v-4.468h-4.2v4.468c0,0.884-0.716,1.6-1.6,1.6s-1.6-0.716-1.6-1.6v-4.468h-4.2v4.468c0,0.884-0.716,1.6-1.6,1.6  s-1.6-0.716-1.6-1.6v-4.468h-1.6c-0.884,0-1.6-0.717-1.6-1.601c0-0.88,0.716-1.6,1.6-1.6h1.6V69.17c0-0.885,0.716-1.6,1.6-1.6  s1.6,0.715,1.6,1.6v4.332h4.2V69.17c0-0.885,0.716-1.6,1.6-1.6s1.6,0.715,1.6,1.6v4.332h4.2V69.17c0-0.885,0.716-1.6,1.6-1.6  s1.6,0.715,1.6,1.6v4.332h4.2V69.17c0-0.885,0.716-1.6,1.601-1.6c0.884,0,1.6,0.715,1.6,1.6v4.332h4.2V69.17  c0-0.885,0.716-1.6,1.6-1.6s1.601,0.715,1.601,1.6v4.332h1.6C67.751,73.502,68.467,74.222,68.467,75.102z"/><path fill="#000000" d="M54.251,56.762l-3.704-5.888c-0.364-0.584-0.992-0.933-1.68-0.933c-0.688,0-1.316,0.349-1.68,0.933  l-3.704,5.888c-0.384,0.612-0.404,1.384-0.056,2.016c0.348,0.633,1.016,1.024,1.74,1.024h7.4c0.724,0,1.392-0.392,1.74-1.024  C54.655,58.146,54.635,57.374,54.251,56.762z M47.363,56.602l1.504-2.392l1.504,2.392H47.363z"/></svg>
