<svg xmlns="http://www.w3.org/2000/svg" width="50" height="50" viewBox="0 0 50 50">
  <g transform="translate(2 3)">
    <path d="M18.4390244 28.1459459L27 28.1459459 27 19.5027027 18.4390244 19.5027027 18.4390244 28.1459459zM20.1402439 21.2202703L25.2987805 21.2202703 25.2987805 26.4283784 20.1402439 26.4283784 20.1402439 21.2202703zM42.3109756 21.3864865C40.9939024 21.3864865 39.8963415 22.4945946 39.8963415 23.8243243 39.8963415 25.1540541 40.9939024 26.2621622 42.3109756 26.2621622 43.6280488 26.2621622 44.7256098 25.1540541 44.7256098 23.8243243 44.7256098 22.4945946 43.6280488 21.3864865 42.3109756 21.3864865zM42.3109756 24.5445946C41.9268293 24.5445946 41.597561 24.2121622 41.597561 23.8243243 41.597561 23.4364865 41.9268293 23.1040541 42.3109756 23.1040541 42.695122 23.1040541 43.0243902 23.4364865 43.0243902 23.8243243 43.0243902 24.2121622 42.695122 24.5445946 42.3109756 24.5445946z"/>
    <path d="M31.3353659,9.80675676 L35.0670732,9.80675676 C35.3963415,10.7486486 36.2743902,11.3581081 37.3170732,11.3581081 C38.6341463,11.3581081 39.7317073,10.25 39.7317073,8.92027027 C39.7317073,7.59054054 38.6341463,6.48243243 37.3170732,6.48243243 C36.2743902,6.48243243 35.3963415,7.1472973 35.0670732,8.03378378 L31.3353659,8.03378378 C31.0609756,7.64594595 30.6219512,7.36891892 30.0731707,7.36891892 C29.25,7.36891892 28.5365854,8.03378378 28.5365854,8.92027027 C28.5365854,9.47432432 28.8109756,9.91756757 29.195122,10.1945946 L29.195122,12.9094595 L23.8170732,12.9094595 L23.8170732,10.1945946 C24.2012195,9.91756757 24.4756098,9.47432432 24.4756098,8.92027027 C24.4756098,8.08918919 23.8170732,7.36891892 22.9390244,7.36891892 C22.0609756,7.36891892 21.402439,8.08918919 21.402439,8.92027027 C21.402439,9.47432432 21.6768293,9.91756757 22.0609756,10.1945946 L22.0609756,12.9094595 L16.6829268,12.9094595 L16.6829268,10.1945946 C17.0670732,9.91756757 17.3414634,9.47432432 17.3414634,8.92027027 C17.3414634,8.36621622 17.0670732,7.92297297 16.6829268,7.64594595 L16.6829268,5.20810811 C17.6158537,4.87567568 18.2195122,3.98918919 18.2195122,2.93648649 C18.2195122,1.60675676 17.1219512,0.498648649 15.804878,0.498648649 C14.4878049,0.498648649 13.3902439,1.60675676 13.3902439,2.93648649 C13.3902439,3.98918919 14.0487805,4.87567568 14.9268293,5.20810811 L14.9268293,7.64594595 C14.5426829,7.92297297 14.2682927,8.36621622 14.2682927,8.92027027 C14.2682927,9.47432432 14.5426829,9.91756757 14.9268293,10.1945946 L14.9268293,12.9094595 L11.7987805,12.9094595 L11.7987805,15.7905405 L9.32926829,15.7905405 C9.05487805,15.4027027 8.61585366,15.1256757 8.06707317,15.1256757 C7.51829268,15.1256757 7.07926829,15.4027027 6.80487805,15.7905405 L1.59146341,15.7905405 L1.59146341,18.7824324 C0.658536585,19.1148649 0,20.0013514 0,21.0540541 C0,22.3837838 1.09756098,23.4918919 2.41463415,23.4918919 C3.73170732,23.4918919 4.82926829,22.3837838 4.82926829,21.0540541 C4.82926829,20.0013514 4.17073171,19.1148649 3.29268293,18.7824324 L3.29268293,17.5635135 L6.8597561,17.5635135 C7.13414634,17.9513514 7.57317073,18.2283784 8.12195122,18.2283784 C8.67073171,18.2283784 9.1097561,17.9513514 9.38414634,17.5635135 L11.8536585,17.5635135 L11.8536585,22.9932432 L9.38414634,22.9932432 C9.1097561,22.6054054 8.67073171,22.3283784 8.12195122,22.3283784 C7.29878049,22.3283784 6.58536585,22.9932432 6.58536585,23.8797297 C6.58536585,24.7662162 7.24390244,25.4310811 8.12195122,25.4310811 C8.67073171,25.4310811 9.1097561,25.1540541 9.38414634,24.7662162 L11.8536585,24.7662162 L11.8536585,30.1959459 L9.38414634,30.1959459 C9.1097561,29.8081081 8.67073171,29.5310811 8.12195122,29.5310811 C7.57317073,29.5310811 7.13414634,29.8081081 6.8597561,30.1959459 L4.66463415,30.1959459 C4.33536585,29.2540541 3.45731707,28.6445946 2.41463415,28.6445946 C1.09756098,28.5891892 0,29.6418919 0,31.027027 C0,32.4121622 1.09756098,33.4648649 2.41463415,33.4648649 C3.45731707,33.4648649 4.33536585,32.8 4.66463415,31.9135135 L6.8597561,31.9135135 C7.13414634,32.3013514 7.57317073,32.5783784 8.12195122,32.5783784 C8.67073171,32.5783784 9.1097561,32.3013514 9.38414634,31.9135135 L11.8536585,31.9135135 L11.8536585,34.6837838 L14.9817073,34.6837838 L14.9817073,37.3986486 C14.8719512,37.4540541 14.8170732,37.5094595 14.7621951,37.6202703 L10.3719512,37.6202703 C10.0426829,36.6783784 9.16463415,36.0689189 8.12195122,36.0689189 C6.80487805,36.0689189 5.70731707,37.177027 5.70731707,38.5067568 C5.70731707,39.8364865 6.80487805,40.9445946 8.12195122,40.9445946 C9.16463415,40.9445946 10.0426829,40.2797297 10.3719512,39.3932432 L14.4878049,39.3932432 C14.7073171,39.8918919 15.2560976,40.2797297 15.8597561,40.2797297 C16.6829268,40.2797297 17.3963415,39.6148649 17.3963415,38.7283784 C17.3963415,38.1743243 17.1219512,37.7310811 16.7378049,37.4540541 L16.7378049,34.7391892 L22.1158537,34.7391892 L22.1158537,37.4540541 C21.7317073,37.7310811 21.4573171,38.1743243 21.4573171,38.7283784 C21.4573171,39.5594595 22.1158537,40.2797297 22.9939024,40.2797297 C23.8719512,40.2797297 24.5304878,39.6148649 24.5304878,38.7283784 C24.5304878,38.1743243 24.2560976,37.7310811 23.8719512,37.4540541 L23.8719512,34.7391892 L29.25,34.7391892 L29.25,37.4540541 C28.8658537,37.7310811 28.5914634,38.1743243 28.5914634,38.7283784 C28.5914634,39.5594595 29.25,40.2797297 30.1280488,40.2797297 C31.0060976,40.2797297 31.6646341,39.6148649 31.6646341,38.7283784 C31.6646341,38.1743243 31.3902439,37.7310811 31.0060976,37.4540541 L31.0060976,34.7391892 C32.4878049,34.7391892 33.6402439,33.5202703 33.6402439,32.0243243 L33.6402439,31.9689189 L36.1097561,31.9689189 C36.2195122,32.1351351 36.3292683,32.2459459 36.4939024,32.3567568 L36.4939024,36.2351351 C35.5609756,36.5675676 34.9573171,37.4540541 34.9573171,38.5067568 C34.9573171,39.8364865 36.054878,40.9445946 37.3719512,40.9445946 C38.6890244,40.9445946 39.7865854,39.8364865 39.7865854,38.5067568 C39.7865854,37.4540541 39.1280488,36.5675676 38.25,36.2351351 L38.25,32.3567568 C38.6341463,32.0797297 38.9085366,31.6364865 38.9085366,31.0824324 C38.9085366,30.2513514 38.25,29.5310811 37.3719512,29.5310811 C36.8231707,29.5310811 36.3841463,29.8081081 36.1097561,30.1959459 L33.6402439,30.1959459 L33.6402439,24.7662162 L36.1097561,24.7662162 C36.3841463,25.1540541 36.8231707,25.4310811 37.3719512,25.4310811 C38.195122,25.4310811 38.9085366,24.7662162 38.9085366,23.8797297 C38.9085366,22.9932432 38.25,22.3283784 37.3719512,22.3283784 C36.8231707,22.3283784 36.3841463,22.6054054 36.1097561,22.9932432 L33.6402439,22.9932432 L33.6402439,17.5635135 L36.1097561,17.5635135 C36.3841463,17.9513514 36.8231707,18.2283784 37.3719512,18.2283784 C38.195122,18.2283784 38.9085366,17.5635135 38.9085366,16.677027 C38.9085366,15.7905405 38.25,15.1256757 37.3719512,15.1256757 C36.8231707,15.1256757 36.3841463,15.4027027 36.1097561,15.7905405 L33.6402439,15.7905405 L33.6402439,12.9094595 L31.0060976,12.9094595 L31.0060976,10.1945946 C31.0609756,10.0837838 31.2256098,9.97297297 31.3353659,9.80675676 Z M15.8597561,2.27162162 C16.2439024,2.27162162 16.5731707,2.60405405 16.5731707,2.99189189 C16.5731707,3.21351351 16.4634146,3.43513514 16.2987805,3.54594595 C16.1890244,3.49054054 16.0243902,3.43513514 15.9146341,3.43513514 C15.75,3.43513514 15.6402439,3.49054054 15.5304878,3.54594595 C15.3658537,3.43513514 15.2560976,3.21351351 15.2560976,2.99189189 C15.1463415,2.60405405 15.4756098,2.27162162 15.8597561,2.27162162 Z M2.41463415,21.7189189 C2.0304878,21.7189189 1.70121951,21.3864865 1.70121951,20.9986486 C1.70121951,20.6108108 2.0304878,20.2783784 2.41463415,20.2783784 C2.79878049,20.2783784 3.12804878,20.6108108 3.12804878,20.9986486 C3.12804878,21.4418919 2.79878049,21.7189189 2.41463415,21.7189189 Z M2.41463415,31.6918919 C2.0304878,31.6918919 1.70121951,31.3594595 1.70121951,30.9716216 C1.70121951,30.5837838 2.0304878,30.2513514 2.41463415,30.2513514 C2.79878049,30.2513514 3.12804878,30.5837838 3.12804878,30.9716216 C3.12804878,31.3594595 2.79878049,31.6918919 2.41463415,31.6918919 Z M8.12195122,39.1162162 C7.73780488,39.1162162 7.40853659,38.7837838 7.40853659,38.3959459 C7.40853659,38.0081081 7.73780488,37.6756757 8.12195122,37.6756757 C8.50609756,37.6756757 8.83536585,38.0081081 8.83536585,38.3959459 C8.83536585,38.8391892 8.50609756,39.1162162 8.12195122,39.1162162 Z M37.3170732,39.1162162 C36.9329268,39.1162162 36.6036585,38.7837838 36.6036585,38.3959459 C36.6036585,38.0081081 36.9329268,37.6756757 37.3170732,37.6756757 C37.7012195,37.6756757 38.0304878,38.0081081 38.0304878,38.3959459 C37.9756098,38.8391892 37.7012195,39.1162162 37.3170732,39.1162162 Z M31.8292683,31.9135135 C31.8292683,32.4675676 31.3902439,32.9108108 30.8414634,32.9108108 L13.6097561,32.9108108 L13.6097561,14.627027 L31.8292683,14.627027 L31.8292683,31.9135135 Z M37.3170732,8.2 C37.7012195,8.2 38.0304878,8.53243243 38.0304878,8.92027027 C38.0304878,9.30810811 37.7012195,9.64054054 37.3170732,9.64054054 C36.9329268,9.64054054 36.6036585,9.30810811 36.6036585,8.92027027 C36.6036585,8.53243243 36.8780488,8.2 37.3170732,8.2 Z"/>
  </g>
</svg>
