<svg xmlns="http://www.w3.org/2000/svg" width="50" height="50" viewBox="0 0 50 50">
  <g transform="translate(8 8)">
    <path d="M9.83333333,12 L9.5,12 C2.5,11.68 1.33333333,6.08 1,1.28 L1,0 L2.33333333,0.48 C3.83333333,1.12 5.33333333,1.76 6.66666667,2.08 C10.1666667,3.04 12.8333333,3.68 13,8.64 L13,8.96 L9.83333333,12 Z M2.83333333,2.56 C3.33333333,7.68 5.33333333,10.08 9.16666667,10.4 L11.1666667,8.32 C11,5.12 9.5,4.48 6.16666667,3.68 C5,3.36 3.83333333,3.04 2.83333333,2.56 Z"/>
    <path d="M12.0930233,16 L9,12.9069767 L12.9069767,9 L16,12.0930233 L12.0930233,16 Z M11.2790698,12.9069767 L12.0930233,13.7209302 L13.7209302,12.0930233 L12.9069767,11.2790698 L11.2790698,12.9069767 Z"/>
    <path d="M31.5356711,1.62135922 C30.9165659,1 30.1426844,0.844660194 29.5235792,1.15533981 L24.1064087,3.95145631 L4.60459492,23.368932 L4.60459492,23.368932 L3.83071342,24.1456311 L3.52116082,24.4563107 L3.52116082,24.4563107 L1.04474002,26.9417476 C-0.348246675,28.3398058 -0.348246675,30.5145631 1.04474002,31.9126214 C1.81862152,32.6893204 2.74727932,33 3.67593712,33 C4.60459492,33 5.37847642,32.6893204 6.15235792,32.0679612 L8.62877872,29.5825243 L8.62877872,29.5825243 L9.24788392,28.961165 L9.71221282,28.4951456 L9.71221282,28.4951456 L28.7496977,8.9223301 L31.6904474,3.33009709 C31.8452237,3.17475728 32,2.86407767 32,2.55339806 C31.8452237,2.24271845 31.6904474,1.93203883 31.5356711,1.62135922 Z M4.91414752,30.9805825 C4.14026602,31.7572816 2.74727932,31.6019417 1.97339782,30.8252427 C1.19951632,30.0485437 1.19951632,28.8058252 1.97339782,28.0291262 L4.44981862,25.5436893 L7.39056832,28.4951456 L4.91414752,30.9805825 Z M27.5114873,7.83495146 L8.62877872,27.407767 L5.68802902,24.4563107 L24.8802902,5.34951456 L30.1426844,2.70873786 C30.1426844,2.70873786 30.1426844,2.70873786 30.1426844,2.70873786 L27.5114873,7.83495146 Z"/>
    <path d="M30.2105263,34 C29.2631579,34 28.3157895,33.6814159 27.5263158,32.8849558 L16,21.0973451 L20.8947368,16 L32.7368421,27.7876106 C33.5263158,28.4247788 33.8421053,29.380531 34,30.3362832 C34,31.2920354 33.6842105,32.2477876 32.8947368,33.0442478 L32.8947368,33.0442478 C32.1052632,33.6814159 31.1578947,34 30.2105263,34 Z M18.2105263,21.0973451 L28.7894737,31.9292035 C29.5789474,32.7256637 31,32.7256637 31.7894737,31.9292035 C32.1052632,31.6106195 32.4210526,30.9734513 32.4210526,30.4955752 C32.4210526,29.8584071 32.1052632,29.380531 31.7894737,29.0619469 L21.0526316,18.3893805 L18.2105263,21.0973451 Z"/>
  </g>
</svg>
