<svg xmlns="http://www.w3.org/2000/svg" width="50" fill="#FFF" height="50" viewBox="0 0 50 50">
  <g transform="translate(3 3)">
    <path d="M33.9724528,35.9820619 C33.9062085,35.7779575 33.7304927,35.6291079 33.5194093,35.5980975 L26.5985657,34.5877242 L23.5036103,28.2892419 C23.3144211,27.903586 22.6862232,27.903586 22.4964726,28.2892419 L19.4015172,34.5877242 L12.4806736,35.5980975 C12.2695901,35.6291079 12.0938744,35.7773937 12.0276301,35.9820619 C11.9613858,36.1856026 12.0164022,36.4100047 12.1696623,36.5594181 L17.1778425,41.4624351 L16.6866243,44.3407586 C16.6344148,44.6474791 16.839323,44.9395401 17.1452818,44.9914119 C17.4534861,45.0455391 17.7414803,44.8380517 17.7936898,44.5313312 L18.3348719,41.3603828 C18.3657485,41.1777037 18.3056795,40.9910779 18.1731909,40.8613983 L13.7685074,36.5492693 L19.8556835,35.660682 C20.0386974,35.6341823 20.1964486,35.5185983 20.2784119,35.3522701 L23.0006028,29.8126954 L25.7227938,35.3522701 C25.8047571,35.5185983 25.9625083,35.6341823 26.1455222,35.660682 L32.2326982,36.5492693 L27.8280147,40.8613983 C27.6960875,40.990514 27.6354572,41.1777037 27.6663337,41.3603828 L28.2075159,44.5313312 C28.2546728,44.8059137 28.4915803,44.9998693 28.7604872,44.9998693 C28.7919252,44.9998693 28.8239246,44.9970502 28.8559239,44.9914119 C29.1613213,44.9389763 29.3667908,44.6474791 29.3145814,44.3407586 L28.8228018,41.4624351 L33.830982,36.5594181 C33.9831192,36.4094408 34.0386971,36.1856026 33.9724528,35.9820619 Z"/>
    <path d="M41.6562175,45 C41.9676869,45 42.2204737,44.7485542 42.2204737,44.4374815 L42.2204737,20.6930149 L44.4357438,20.6930149 C44.7472132,20.6930149 45,20.4415692 45,20.1304965 L45,15.8896698 C45,15.5785971 44.7472132,15.3271514 44.4357438,15.3271514 L39.131735,15.3271514 L39.131735,12.6726268 C39.131735,12.5184967 39.0679741,12.3705544 38.9556871,12.2642384 L36.5621121,10.0001016 L37.4045467,9.16026152 C37.6178355,8.94706702 37.6257351,8.60449328 37.4214743,8.38229849 L31.5120187,1.95552511 C31.5114544,1.9549626 31.5108901,1.9549626 31.5103259,1.95440008 C31.3545912,1.56401227 31.1238104,1.20343794 30.8241903,0.904740636 C29.6138606,-0.301861455 27.6451706,-0.301298936 26.4354052,0.904740636 C25.849143,1.48919731 25.5263884,2.2660353 25.5263884,3.09293744 C25.5263884,3.91927705 25.849143,4.69667756 26.4354052,5.28057172 C26.7355895,5.57983154 27.0967135,5.8104641 27.4888716,5.9657192 C27.4888716,5.9657192 27.4888716,5.96628172 27.4894359,5.96628172 L33.9366278,11.8581 C34.0444007,11.9571033 34.181515,12.0060424 34.318065,12.0060424 C34.4625146,12.0060424 34.6069642,11.9509156 34.7169941,11.8412245 L35.7642537,10.7971902 L38.0037868,12.9150722 L38.0037868,15.3277139 L23.0645384,15.3277139 L23.0645384,13.7453495 C24.5372472,13.5220296 25.670838,12.2546756 25.670838,10.7251879 L25.670838,7.91259558 C25.670838,6.22616524 24.294617,4.85362021 22.6024125,4.85362021 C20.910208,4.85362021 19.533987,6.22560273 19.533987,7.91259558 L19.533987,10.7251879 C19.533987,12.1832357 20.5637547,13.4044633 21.9354616,13.7087858 L21.9354616,15.3271514 L7.13840579,15.3271514 L7.13840579,12.3486161 L9.56583617,9.92922425 L9.6634525,10.0265399 C10.1351707,10.4968054 10.7547241,10.7313756 11.3737132,10.7313756 C11.9932665,10.7313756 12.6128199,10.4968054 13.0845381,10.0265399 L18.0268586,5.09887826 C18.4839062,4.6432383 18.7355644,4.03796844 18.7355644,3.39388481 C18.7355644,2.74980118 18.4839062,2.1439688 18.0268586,1.68889137 L17.1121992,0.777048947 C16.1687628,-0.163481914 14.6339858,-0.163481914 13.6911136,0.777048947 L8.74879312,5.70471063 C8.29174556,6.16035058 8.04008727,6.76562044 8.04008727,7.40970408 C8.04008727,8.05378771 8.29174556,8.65962009 8.74879312,9.11469752 L8.76741357,9.13326063 L6.17465612,11.7174704 C6.06857594,11.8232239 6.00932904,11.9655411 6.00932904,12.115171 L6.00932904,15.3265888 L0.564256248,15.3265888 C0.252786799,15.3265888 0,15.5780346 0,15.8891073 L0,20.129934 C0,20.4410067 0.252786799,20.6924524 0.564256248,20.6924524 L2.87375707,20.6924524 L2.87375707,44.436919 C2.87375707,44.7479917 3.12654387,44.9994375 3.43801332,44.9994375 C3.74948277,44.9994375 4.00226956,44.7479917 4.00226956,44.436919 L4.00226956,20.6930149 L41.0919612,20.6930149 L41.0919612,44.4374815 C41.0919612,44.7479917 41.344748,45 41.6562175,45 Z M26.6549009,3.09293744 C26.6549009,2.56642016 26.8602902,2.07252895 27.2332635,1.70014174 C28.0029091,0.933429078 29.2561222,0.933429078 30.026332,1.70014174 C30.1826309,1.85595935 30.299432,2.04271548 30.3953555,2.23903442 L27.7743853,4.85193265 C27.5774598,4.75630451 27.3901268,4.64042571 27.2338278,4.4846081 C26.8602902,4.1127834 26.6549009,3.61832968 26.6549009,3.09293744 Z M34.300573,10.6644359 L28.6862234,5.53370502 L31.0781056,3.14918928 L36.2246868,8.74624793 L34.300573,10.6644359 Z M20.6630638,10.7246253 L20.6630638,7.91203306 C20.6630638,6.84549807 21.5331469,5.9780946 22.6029768,5.9780946 C23.6728066,5.9780946 24.5428897,6.84549807 24.5428897,7.91203306 L24.5428897,10.7246253 C24.5428897,11.7911603 23.6728066,12.6585638 22.6029768,12.6585638 C21.5331469,12.6585638 20.6630638,11.7911603 20.6630638,10.7246253 Z M9.54721571,6.49954921 L14.4895362,1.57188753 C14.9922885,1.07068358 15.8110243,1.07012106 16.3149051,1.57188753 L17.2295645,2.48372995 C17.4733232,2.72673792 17.6076162,3.04962351 17.6076162,3.39332229 C17.6076162,3.73702107 17.4733232,4.06046918 17.2295645,4.30291464 L12.287244,9.23057633 C11.7839275,9.73178027 10.9646274,9.73178027 10.4618751,9.23057633 L9.54721571,8.31873391 C9.30345701,8.07572593 9.16916402,7.75284034 9.16916402,7.40914156 C9.16916402,7.06544278 9.30345701,6.74255719 9.54721571,6.49954921 Z M1.12907675,16.4521883 L43.8714875,16.4521883 L43.8714875,19.567978 L1.12907675,19.567978 L1.12907675,16.4521883 Z"/>
  </g>
</svg>
