<svg xmlns="http://www.w3.org/2000/svg" width="50" fill="#FFF" height="50" viewBox="0 0 50 50">
  <g>
    <path d="M4.53817272,45 L46.4618273,45 C46.7847309,45 47,44.785 47,44.4625 L47,26.94 C47,26.6175 46.7847309,26.4025 46.4618273,26.4025 L44.2553191,26.4025 C43.9324155,26.4025 43.7171464,26.6175 43.7171464,26.94 L43.7171464,27.96125 L42.1564456,27.96125 L42.1564456,26.94 C42.1564456,26.6175 41.9411765,26.4025 41.6182728,26.4025 L39.6808511,26.4025 C39.3579474,26.4025 39.1426783,26.6175 39.1426783,26.94 L39.1426783,27.96125 L37.5819775,27.96125 L37.5819775,26.94 C37.5819775,26.6175 37.3667084,26.4025 37.0438048,26.4025 L35.3216521,26.4025 L35.3216521,18.60875 L36.290363,13.23375 C36.3441802,13.0725 36.290363,12.91125 36.1827284,12.80375 C36.0750939,12.69625 35.9136421,12.58875 35.7521902,12.58875 L32.8998748,12.58875 C32.5769712,12.58875 32.3617021,12.80375 32.3617021,13.12625 L32.3617021,14.3625 L30.3166458,14.3625 L30.3166458,13.12625 C30.3166458,12.80375 30.1013767,12.58875 29.7784731,12.58875 L26.8185232,12.58875 C26.4956195,12.58875 26.2803504,12.80375 26.2803504,13.12625 L26.2803504,14.3625 L25.795995,14.3625 L25.795995,2.5375 C25.795995,2.215 25.5807259,2 25.2578223,2 C24.9349186,2 24.7196496,2.215 24.7196496,2.5375 L24.7196496,3.1825 C23.1051314,2.59125 21.5982478,3.505 21.5444305,3.55875 C21.4906133,3.55875 21.436796,3.6125 21.436796,3.66625 C21.436796,3.66625 21.436796,3.66625 21.436796,3.66625 C21.3829787,3.72 21.3829787,3.77375 21.3291615,3.8275 C21.3291615,3.8275 21.3291615,3.8275 21.3291615,3.88125 C21.3291615,3.935 21.2753442,3.98875 21.2753442,4.0425 L21.2753442,4.09625 C21.2753442,4.09625 21.2753442,4.20375 21.1677096,4.2575 C21.0600751,4.31125 20.5757196,4.58 18.7997497,3.88125 C14.9787234,2.3225 12.4493116,4.31125 12.3954944,4.365 C12.2340426,4.52625 12.1802253,4.74125 12.2340426,4.95625 C12.2878598,5.17125 12.5031289,5.3325 12.718398,5.3325 C13.2027534,5.38625 13.6332916,5.49375 13.902378,5.60125 C12.7722153,6.3 12.2878598,7.75125 12.2340426,7.85875 C12.1802253,8.07375 12.2340426,8.3425 12.4493116,8.45 C12.6645807,8.61125 12.9336671,8.5575 13.0951189,8.39625 C13.1489362,8.3425 14.3329161,7.42875 16.7546934,8.50375 C18.3153942,9.14875 19.9837297,9.47125 21.2215269,9.47125 C21.9749687,9.47125 22.5669587,9.36375 22.8898623,9.14875 C23.1051314,8.9875 23.212766,8.71875 23.1589487,8.45 C23.1051314,8.02 23.2665832,7.805 23.3742178,7.6975 C24.1276596,7.805 24.6658323,8.07375 24.6658323,8.07375 C24.6658323,8.07375 24.7196496,8.07375 24.7196496,8.1275 L24.7196496,14.3625 L24.2891114,14.3625 L24.2891114,13.12625 C24.2891114,12.80375 24.0738423,12.58875 23.7509387,12.58875 L20.8986233,12.58875 C20.5757196,12.58875 20.3604506,12.80375 20.3604506,13.12625 L20.3604506,14.3625 L18.3692115,14.3625 L18.3692115,13.12625 C18.3692115,12.80375 18.1539424,12.58875 17.8310388,12.58875 L15.2478098,12.58875 C15.0863579,12.58875 14.9249061,12.6425 14.8172716,12.80375 C14.709637,12.91125 14.6558198,13.0725 14.709637,13.23375 L15.6783479,18.60875 L15.6783479,26.45625 L13.9561952,26.45625 C13.6332916,26.45625 13.4180225,26.67125 13.4180225,26.99375 L13.4180225,28.015 L11.8573217,28.015 L11.8573217,26.99375 C11.8573217,26.67125 11.6420526,26.45625 11.3191489,26.45625 L9.38172716,26.45625 C9.05882353,26.45625 8.84355444,26.67125 8.84355444,26.99375 L8.84355444,28.015 L7.28285357,28.015 L7.28285357,26.99375 C7.28285357,26.67125 7.06758448,26.45625 6.74468085,26.45625 L4.53817272,26.45625 C4.21526909,26.45625 4,26.67125 4,26.99375 L4,44.4625 C4,44.785 4.21526909,45 4.53817272,45 Z M17.1852315,7.4825 C15.7859825,6.89125 14.709637,6.8375 13.902378,6.945 C14.2252816,6.56875 14.6020025,6.24625 15.0863579,6.24625 C15.301627,6.24625 15.4630788,6.085 15.5707134,5.92375 C15.6245307,5.70875 15.6245307,5.49375 15.4630788,5.38625 C15.301627,5.225 14.9249061,4.84875 14.2790989,4.58 C15.1939925,4.2575 16.6470588,4.09625 18.4230288,4.84875 C19.660826,5.38625 20.6295369,5.5475 21.2753442,5.3325 L21.2753442,7.32125 C21.2753442,7.4825 21.3829787,7.64375 21.4906133,7.75125 C21.6520651,7.85875 21.8135169,7.85875 21.9749687,7.805 C22.028786,7.805 22.028786,7.805 22.0826033,7.75125 C22.028786,7.9125 22.028786,8.07375 22.028786,8.235 C21.4906133,8.45 19.3917397,8.39625 17.1852315,7.4825 Z M23.2665832,6.56875 C23.2665832,6.56875 23.212766,6.56875 23.212766,6.56875 C22.9436796,6.56875 22.6745932,6.56875 22.4055069,6.6225 L22.4055069,4.365 C22.8360451,4.15 23.8585732,3.88125 24.7734668,4.41875 L24.7734668,6.945 C24.3967459,6.78375 23.8585732,6.6225 23.2665832,6.56875 Z M16.7546934,19.0925 L34.2991239,19.0925 L34.2991239,43.925 L31.1777222,43.925 C31.1777222,42.3125 30.9624531,35.4325 25.9036295,30.97125 C25.6883605,30.81 25.4192741,30.81 25.204005,30.97125 C20.0913642,35.4325 19.8222778,42.3125 19.8760951,43.925 L16.7546934,43.925 L16.7546934,19.0925 Z M24.9887359,32.6375 L24.9887359,43.925 L20.9524406,43.925 C20.9524406,42.635 21.1138924,36.77625 24.9887359,32.6375 Z M26.0650814,32.6375 C29.8861076,36.77625 30.1013767,42.58125 30.1013767,43.925 L26.0650814,43.925 L26.0650814,32.6375 Z M36.505632,27.4775 L36.505632,28.49875 C36.505632,28.82125 36.7209011,29.03625 37.0438048,29.03625 L39.6808511,29.03625 C40.0037547,29.03625 40.2190238,28.82125 40.2190238,28.49875 L40.2190238,27.4775 L41.0801001,27.4775 L41.0801001,28.49875 C41.0801001,28.82125 41.2953692,29.03625 41.6182728,29.03625 L44.2553191,29.03625 C44.5782228,29.03625 44.7934919,28.82125 44.7934919,28.49875 L44.7934919,27.4775 L45.9236546,27.4775 L45.9236546,43.925 L35.3216521,43.925 L35.3216521,27.4775 L36.505632,27.4775 Z M17.2928661,13.66375 L17.2928661,14.9 C17.2928661,15.2225 17.5081352,15.4375 17.8310388,15.4375 L20.8986233,15.4375 C21.2215269,15.4375 21.436796,15.2225 21.436796,14.9 L21.436796,13.66375 L23.212766,13.66375 L23.212766,14.9 C23.212766,15.2225 23.428035,15.4375 23.7509387,15.4375 L26.8185232,15.4375 C27.1414268,15.4375 27.3566959,15.2225 27.3566959,14.9 L27.3566959,13.66375 L29.2403004,13.66375 L29.2403004,14.9 C29.2403004,15.2225 29.4555695,15.4375 29.7784731,15.4375 L32.8998748,15.4375 C33.2227785,15.4375 33.4380476,15.2225 33.4380476,14.9 L33.4380476,13.66375 L35.106383,13.66375 L34.3529412,18.0175 L16.6470588,18.0175 L15.893617,13.66375 L17.2928661,13.66375 L17.2928661,13.66375 Z M6.20650814,27.4775 L6.20650814,28.49875 C6.20650814,28.82125 6.42177722,29.03625 6.74468085,29.03625 L9.38172716,29.03625 C9.70463079,29.03625 9.91989987,28.82125 9.91989987,28.49875 L9.91989987,27.4775 L10.7809762,27.4775 L10.7809762,28.49875 C10.7809762,28.82125 10.9962453,29.03625 11.3191489,29.03625 L13.9561952,29.03625 C14.2790989,29.03625 14.494368,28.82125 14.494368,28.49875 L14.494368,27.4775 L15.6783479,27.4775 L15.6783479,43.925 L5.07634543,43.925 L5.07634543,27.4775 L6.20650814,27.4775 Z"/>
    <path d="M38.55 38L42.5 38C42.8 38 43 37.78125 43 37.453125L43 33.734375C43 32.2578125 41.9 31 40.5 31 39.1 31 38 32.203125 38 33.734375L38 37.453125C38.05 37.7265625 38.25 38 38.55 38zM39.05 33.734375C39.05 32.859375 39.7 32.09375 40.55 32.09375 41.35 32.09375 42.05 32.8046875 42.05 33.734375L42.05 36.90625 39.1 36.90625 39.1 33.734375 39.05 33.734375zM8.5 38L12.5 38C12.8 38 13 37.78125 13 37.453125L13 33.734375C13 32.2578125 11.9 31 10.5 31 9.1 31 8 32.203125 8 33.734375L8 37.453125C8 37.7265625 8.25 38 8.5 38zM9 33.734375C9 32.859375 9.65 32.09375 10.5 32.09375 11.3 32.09375 12 32.8046875 12 33.734375L12 36.90625 9 36.90625 9 33.734375z"/>
  </g>
</svg>
