<svg xmlns="http://www.w3.org/2000/svg" width="50" fill="#FFF" height="50" viewBox="0 0 50 50">
  <path d="M25,2.19126888 C23.4622225,2.19126888 22.0132225,2.90656135 20.750755,4.12209753 C19.4883925,5.33763371 18.3920875,7.05538337 17.469505,9.15545427 C17.208265,9.75018382 16.96246,10.383052 16.73125,11.0367745 C16.0560475,10.9122298 15.402475,10.7927125 14.7625,10.7232211 C13.6278175,10.6000125 12.5481025,10.5681845 11.546875,10.6242043 C10.5456475,10.680224 9.61309,10.8238064 8.774245,11.0697801 C7.0965025,11.5617275 5.7697225,12.4696408 5.000755,13.8092358 C4.2318925,15.1488415 4.1261575,16.7555549 4.54138,18.463028 C4.9567075,20.170501 5.885275,21.9892954 7.232005,23.8429437 C7.61347,24.3679337 8.031895,24.8988225 8.47888,25.4272292 C8.032735,25.954791 7.61284,26.4708933 7.232005,26.9950225 C5.885275,28.848618 4.9567075,30.6674124 4.54138,32.3748854 C4.1261575,34.0823584 4.2318925,35.7056011 5.000755,37.0452067 C5.7697225,38.3848124 7.0965025,39.2762281 8.774245,39.7681438 C10.451935,40.2601124 12.4931875,40.361136 14.7625,40.1147292 C15.402475,40.0452326 16.0560475,39.9422022 16.73125,39.8176787 C16.96393,40.476682 17.2063225,41.0998281 17.469505,41.6989989 C18.3920875,43.7990539 19.4883925,45.5168247 20.750755,46.7323292 C22.0132225,47.9478865 23.4622225,48.6631843 25,48.6631843 C26.5377775,48.6631843 27.9867775,47.9478865 29.249245,46.7323292 C30.5116075,45.5168247 31.6079125,43.7990539 32.530495,41.6989989 C32.7936775,41.0998281 33.03607,40.476682 33.26875,39.8176787 C33.9439525,39.9422022 34.597525,40.0452326 35.2375,40.1147292 C37.5068125,40.361136 39.5481175,40.2601124 41.225755,39.7681438 C42.9034975,39.2762281 44.2302775,38.3848124 44.999245,37.0452067 C45.7681075,35.7056011 45.8738425,34.0823584 45.45862,32.3748854 C45.0432925,30.6674124 44.114725,28.848618 42.767995,26.9950225 C42.38716,26.4708933 41.967265,25.954791 41.52112,25.4272292 C41.968105,24.8988225 42.38653,24.3679337 42.767995,23.8429437 C44.114725,21.9892954 45.0432925,20.170501 45.45862,18.463028 C45.8738425,16.7555549 45.7681075,15.1488415 44.999245,13.8092358 C44.2302775,12.4696408 42.9034975,11.5617275 41.225755,11.0697801 C40.38691,10.8238064 39.4543525,10.680224 38.453125,10.6242043 C37.4518975,10.5681845 36.3721825,10.6000178 35.2375,10.7232211 C34.597525,10.7927125 33.9439525,10.9122298 33.26875,11.0367745 C33.03754,10.383052 32.791735,9.75018382 32.530495,9.15545427 C31.6079125,7.05538337 30.5116075,5.33763371 29.249245,4.12209753 C27.9867775,2.90656135 26.5377775,2.19126888 25,2.19126888 L25,2.19126888 Z M25,3.24744865 C26.21674,3.24744865 27.402925,3.79860022 28.52737,4.88122674 C29.6516575,5.96385326 30.6963025,7.57528258 31.57888,9.5845273 C31.8079375,10.1058999 32.0128975,10.6618307 32.21875,11.2348082 C29.941615,11.7371537 27.498055,12.5455431 25,13.6277313 C22.501945,12.5455431 20.058385,11.7371537 17.78125,11.2348082 C17.9871025,10.6618307 18.1920625,10.1058999 18.42112,9.5845273 C19.3036975,7.57528258 20.3483425,5.96385326 21.47263,4.88122674 C22.5970225,3.79860022 23.78326,3.24744865 25,3.24744865 Z M12.334375,11.6638812 C13.0650175,11.656752 13.8335125,11.6909722 14.64763,11.7794009 C15.2161,11.8411293 15.8012125,11.935124 16.403125,12.0434458 C15.697105,14.2771763 15.1624975,16.8030302 14.844505,19.5192078 C12.6573025,21.1609864 10.7414725,22.8960257 9.167995,24.6350944 C8.7767125,24.1687224 8.4037,23.6933887 8.06875,23.2323662 C6.78019,21.4588819 5.92843,19.7363055 5.55862,18.2155122 C5.1886525,16.694719 5.294755,15.3972549 5.903125,14.3373257 C6.511495,13.2773965 7.5753025,12.5146076 9.069505,12.0764515 C9.816685,11.8573734 10.677685,11.7327706 11.6125,11.680384 C11.84623,11.6672874 12.0908275,11.666284 12.334375,11.6639076 L12.334375,11.6638812 Z M37.665625,11.6638812 C37.9091725,11.6665217 38.15377,11.6670498 38.3875,11.6803576 C39.322315,11.7327442 40.1832625,11.857347 40.930495,12.0764251 C42.4246975,12.5145812 43.488505,13.2773965 44.096875,14.3373257 C44.705245,15.3972549 44.8113475,16.6946662 44.44138,18.2154594 C44.0715175,19.7362527 43.21981,21.4588291 41.93125,23.2323134 C41.5963,23.6933358 41.2232875,24.1686696 40.832005,24.6350944 C39.2585275,22.8959729 37.3426975,21.1609336 35.155495,19.5192078 C34.8375025,16.8029774 34.302895,14.2771763 33.596875,12.0434194 C34.1987875,11.9350976 34.7839,11.8411029 35.35237,11.7793745 C36.1664875,11.6909617 36.9349825,11.6567098 37.665625,11.6638548 L37.665625,11.6638812 Z M17.4203125,12.2414796 C19.38544,12.6673999 21.49909,13.3373347 23.67112,14.2218325 C22.37185,14.8324628 21.05809,15.5084707 19.75,16.2681808 C18.433195,17.0329078 17.1916225,17.8445291 16.009375,18.6775909 C16.33204,16.3438033 16.8060625,14.1662246 17.4203125,12.2414796 Z M32.5796875,12.2414796 C33.1939375,14.1662246 33.66796,16.3438033 33.990625,18.6775909 C32.8083775,17.8445291 31.566805,17.0329078 30.25,16.2681808 C28.94191,15.5084707 27.62815,14.8324628 26.32888,14.2218325 C28.50091,13.3373347 30.61456,12.6673999 32.5796875,12.2414796 Z M25,14.7994044 C26.5606675,15.4933673 28.1440675,16.274201 29.725,17.1923381 C31.30525,18.1100527 32.77651,19.1010134 34.1546875,20.1133089 C34.337125,21.8221549 34.45,23.58851 34.45,25.4272292 C34.45,27.2593843 34.3522975,29.0378326 34.17112,30.7411337 C32.7898975,31.7542213 31.309345,32.7255371 29.725,33.6456281 C28.1448025,34.5632899 26.5599325,35.3592798 25,36.0550382 C23.4400675,35.3592798 21.8551975,34.5632899 20.275,33.6456281 C18.690655,32.7255371 17.2101025,31.7542213 15.82888,30.7411337 C15.6477025,29.0378326 15.55,27.2593843 15.55,25.4272292 C15.55,23.58851 15.662875,21.8221549 15.8453125,20.1133089 C17.22349,19.1010134 18.69475,18.1100527 20.275,17.1923381 C21.8559325,16.274201 23.4393325,15.4933673 25,14.7994044 Z M14.680495,20.9714549 C14.5555975,22.4150415 14.5,23.9012976 14.5,25.4272292 C14.5,26.9474416 14.55649,28.444418 14.680495,29.8829876 C12.83134,28.4362854 11.2076725,26.9240472 9.857005,25.4272292 C11.2076725,23.9282302 12.83134,22.4214313 14.680495,20.9714549 Z M35.319505,20.9714549 C37.16866,22.4214313 38.7923275,23.9282302 40.142995,25.4272292 C38.7923275,26.9240472 37.16866,28.4362854 35.319505,29.8829876 C35.44351,28.444418 35.5,26.9474416 35.5,25.4272292 C35.5,23.9012976 35.4444025,22.4150415 35.319505,20.9714549 Z M25,21.7305842 C22.9765975,21.7305842 21.325,23.3919021 21.325,25.4272292 C21.325,27.4625404 22.9765975,29.1238584 25,29.1238584 C27.0234025,29.1238584 28.675,27.4625404 28.675,25.4272292 C28.675,23.3919021 27.0234025,21.7305842 25,21.7305842 Z M9.167995,26.219364 C10.7394775,27.9553539 12.6615025,29.6797258 14.844505,31.3187056 C15.162025,34.0472933 15.69427,36.584818 16.403125,38.8275101 C15.8012125,38.9362966 15.2161,39.0132921 14.64763,39.0750258 C12.4764925,39.310818 10.5638125,39.1996551 9.069505,38.7614989 C7.5753025,38.3233427 6.511495,37.5770461 5.903125,36.5171169 C5.294755,35.4571876 5.1886525,34.1432472 5.55862,32.6224539 C5.9284825,31.1016607 6.78019,29.3955607 8.06875,27.6220764 C8.4058,27.1582022 8.77393,26.6891528 9.167995,26.219364 Z M40.832005,26.219364 C41.22607,26.6891528 41.5942,27.1582022 41.93125,27.6220764 C43.21981,29.3955607 44.07157,31.1016607 44.44138,32.6224539 C44.8113475,34.1432472 44.705245,35.4571876 44.096875,36.5171169 C43.488505,37.5770461 42.4246975,38.3233427 40.930495,38.7614989 C39.4361875,39.1996551 37.5235075,39.310818 35.35237,39.0750258 C34.7839,39.0132921 34.1987875,38.9362966 33.596875,38.8275101 C34.30573,36.584818 34.837975,34.0472933 35.155495,31.3187056 C37.3384975,29.6797258 39.2605225,27.9553539 40.832005,26.219364 Z M15.992995,32.1603753 C17.1786025,32.9962888 18.4289425,33.8025764 19.75,34.5697854 C21.064705,35.3332978 22.381825,36.0361326 23.6875,36.6491393 C21.51001,37.5399742 19.3901125,38.2003506 17.4203125,38.6294764 C16.8029125,36.6949775 16.3156075,34.507682 15.992995,32.1603753 Z M34.007005,32.1603753 C33.6843925,34.507682 33.1970875,36.6949775 32.5796875,38.6294764 C30.6098875,38.2003506 28.48999,37.5399742 26.3125,36.6491393 C27.618175,36.0361326 28.935295,35.3332978 30.25,34.5697854 C31.5710575,33.8025764 32.8213975,32.9962888 34.007005,32.1603753 Z M25,37.2267112 C27.5037775,38.3113551 29.953585,39.1174843 32.23513,39.6196449 C32.02723,40.1996989 31.8105625,40.7426281 31.57888,41.2699258 C30.6963025,43.2791494 29.6516575,44.8740865 28.52737,45.9567236 C27.4029775,47.0393607 26.21674,47.6070045 25,47.6070045 C23.78326,47.6070045 22.597075,47.0393607 21.47263,45.9567236 C20.3483425,44.8740865 19.3036975,43.2791494 18.42112,41.2699258 C18.1894375,40.7426281 17.97277,40.1996989 17.76487,39.6196449 C20.046415,39.1174843 22.4962225,38.3113551 25,37.2267112 Z"/>
</svg>
