<svg xmlns="http://www.w3.org/2000/svg" width="50" fill="#FFF" height="50" viewBox="0 0 50 50">
  <g transform="translate(2 5)">
    <path d="M5.4140625,38 L0.5859375,38 C0.262333154,38 0,37.7200808 0,37.3747829 L0,20.6252171 C0,20.2799192 0.262333154,20 0.5859375,20 L5.4140625,20 C5.73766685,20 6,20.2799192 6,20.6252171 L6,37.3747829 C6,37.7200808 5.73766685,38 5.4140625,38 Z M1.171875,36.7495658 L4.828125,36.7495658 L4.828125,21.2504342 L1.171875,21.2504342 L1.171875,36.7495658 Z"/>
    <path d="M19.1898204,39 C17.1778561,38.9997837 15.18263,38.6270204 13.3011173,37.8998279 L6.39344349,35.2340263 C6.08097973,35.1155093 5.92183717,34.7609716 6.03798862,34.4421442 C6.15414008,34.1233168 6.50160135,33.9609331 6.81406513,34.0794501 L13.7158147,36.7452517 C17.7290758,38.2873305 22.1884824,38.0685696 26.0382517,36.1407615 L45.1498775,25.6891266 C45.6856775,25.3490229 45.9039617,24.6648873 45.6670895,24.0681064 C45.4302174,23.4713254 44.8068893,23.1349846 44.1901492,23.271166 L29.0418457,27.5267767 C28.72611,27.6152472 28.3998677,27.4257995 28.3131631,27.1036336 C28.2264585,26.7814677 28.4121249,26.4485811 28.7278605,26.3601107 L43.8761641,22.0863653 C45.0889959,21.7554701 46.3530187,22.4006628 46.8208375,23.5894093 C47.2886563,24.7781559 46.812972,26.1361631 45.7126811,26.7530293 L26.5773583,37.2469785 C24.2782029,38.3988578 21.7511681,38.998509 19.1898204,39 Z"/>
    <path d="M28.4001868,28.9624442 L19.0642579,28.9624442 C18.7305303,28.9624442 18.4599906,28.6568375 18.4599906,28.2798525 C18.4599906,27.9028674 18.7305303,27.5972607 19.0642579,27.5972607 L28.4001868,27.5972607 C28.8733397,27.6342095 29.3252398,27.3700155 29.5717671,26.9123206 C29.8182943,26.4546258 29.8182943,25.8798361 29.5717671,25.4221412 C29.3252398,24.9644464 28.8733397,24.7002524 28.4001868,24.7372012 L14.7195764,24.7372012 C14.6017366,24.7381825 14.4862143,24.7002199 14.3872294,24.6279865 L13.6137673,24.0477835 C12.9834539,23.5905083 12.2478629,23.3530975 11.4988319,23.3651917 L6.60426725,23.3651917 C6.27053966,23.3651917 6,23.059585 6,22.6825999 C6,22.3056149 6.27053966,22.0000082 6.60426725,22.0000082 L11.4988319,22.0000082 C12.4881405,21.9981062 13.4556346,22.328352 14.2784613,22.9488107 L14.8827285,23.4061472 L28.4001868,23.4061472 C29.3134059,23.355154 30.1772529,23.8764853 30.6473941,24.7623358 C31.1175353,25.6481862 31.1175353,26.7545348 30.6473941,27.6403853 C30.1772529,28.5262358 29.3134059,29.0475671 28.4001868,28.9965738 L28.4001868,28.9624442 Z"/>
    <path d="M38.4010339,23.9999947 C38.1725425,24.0004812 37.9637956,23.8622722 37.8632596,23.6439403 C36.2738378,20.1851259 31.4995969,17.9915763 26.2831861,18.3031239 C22.5964445,18.5256579 19.1487136,19.9880243 17.0513938,22.2197226 C16.9053643,22.401168 16.6760761,22.480203 16.4577992,22.4243331 C16.2395222,22.3684632 16.0690963,22.1871179 16.0165905,21.9548556 C15.9640847,21.7225933 16.0383608,21.4786143 16.2088807,21.3232284 C18.5392361,18.8372056 22.1841508,17.2731093 26.2114829,17.031501 C31.9059153,16.6881628 37.1402519,19.1805437 38.9388082,23.0844262 C39.0088321,23.2361411 39.019202,23.4112804 38.9676268,23.5711473 C38.9160516,23.7310142 38.8067766,23.8624498 38.6639458,23.9364135 C38.5820053,23.9786439 38.492079,24.0003912 38.4010339,23.9999947 Z"/>
    <path d="M27.5 18C27.2238576 18 27 17.7395322 27 17.4182288L27 9.58177117C27 9.26046782 27.2238576 9 27.5 9 27.7761424 9 28 9.26046782 28 9.58177117L28 17.4182288C28 17.7395322 27.7761424 18 27.5 18zM29.7413059 8.99999885C29.6344365 8.99894992 29.5297552 8.971249 29.4378483 8.91969748 28.2569942 8.24231559 27.4031774 7.15544094 27.0587407 5.89118878 26.8355164 4.53494612 27.2550471 3.15457874 28.2058104 2.11702453 29.905173-.0166975093 32.6484297-.550128019 36.1381921.57409112 37.776285 1.12535716 39.3278884 1.88363185 40.7507476 2.82826521 40.957734 2.970978 41.0475947 3.22116293 40.9753062 3.45346871 40.9031833 3.68832019 40.6814395 3.85412971 40.4230134 3.86644717 40.3501835 3.86644717 33.2432066 4.28516144 30.2571838 8.73041569 30.1460482 8.89846663 29.950996 9.00039541 29.7413059 8.99999885zM32.8487117 1.15914394C31.4106979 1.10195234 30.0351038 1.71764855 29.1708056 2.80532196 28.4363229 3.5888512 28.099511 4.63593348 28.2482945 5.67322793 28.4666034 6.44785334 28.951261 7.13188432 29.625992 7.61766817 32.0536528 4.44576417 36.3020592 3.31580922 38.6690284 2.92577401 37.2306394 2.16291102 34.9607766 1.15914394 32.8487117 1.15914394L32.8487117 1.15914394z"/>
    <path d="M32.6301745,9.99974212 C31.3545081,9.96644206 30.1369611,9.52450889 29.2077219,8.75749412 C28.9539793,8.56133842 28.929282,8.22208881 29.152521,7.99923884 C29.3762426,7.77676117 29.7631671,7.75510694 30.0173343,7.95083957 C31.4096224,9.02637896 32.6424413,9.02637896 33.42752,8.83278187 C34.4706469,8.57454867 35.3041708,7.88589024 35.6600877,6.98823181 C36.9297072,3.58414963 40.1313564,3.03024684 40.2662918,3.00873605 C40.6050317,2.95527569 40.9290631,3.1527052 40.9900363,3.4497072 C41.0510094,3.7467092 40.8258351,4.03081508 40.4870952,4.08427544 C40.3766935,4.08427544 37.8619882,4.56289048 36.8070386,7.33778211 C36.3230324,8.57677488 35.1772433,9.52914582 33.7403249,9.88681048 C33.3772345,9.96558118 33.0041895,10.0035297 32.6301745,9.99974212 Z"/>
    <path d="M27.5918132 11.9999512C27.5064476 11.9993095 27.4221091 11.9800973 27.3439917 11.9434977 27.2013385 11.8739192 27.0906399 11.7467892 27.0363809 11.5902275 26.982122 11.4336657 26.9887743 11.2605747 27.0548666 11.1092402 27.8042317 9.3717265 29.9107147 7.25785607 30.0051229 7.17003949 30.1590106 7.01653177 30.3782459 6.96196016 30.580245 7.02688127 30.7822442 7.09180239 30.9363187 7.26635316 30.9844302 7.484782 31.0325417 7.70321084 30.9673808 7.93233321 30.8134932 8.08584093 30.8134932 8.08584093 28.7896173 10.1181674 28.1346604 11.6361396 28.0369843 11.8605553 27.8244003 12.0030273 27.5918132 11.9999512zM25.0275306 12C24.8707253 11.9993875 24.7204593 11.941638 24.609128 11.8392014 20.6821207 8.2849989 13.7665233 9.38840968 13.7067515 9.39949923 13.4565408 9.44204979 13.2047119 9.3330313 13.0791476 9.12780512 12.9531136 8.92382086 12.979463 8.66827729 13.1448966 8.49015568 14.2821468 7.30333285 15.5870082 6.26445928 17.0240864 5.40171447 20.096357 3.61075125 22.8578142 3.53312436 24.9976447 5.18546813 26.161713 5.96590234 26.8945975 7.18357283 27 8.51233479 26.9643033 9.76580112 26.4074434 10.9578983 25.4459332 11.8392014 25.3346018 11.941638 25.1843358 11.9993875 25.0275306 12zM16.3008477 8.11865557C18.7455143 8.11865557 22.2780277 8.55114823 24.9797131 10.6637086 25.5011477 10.0586291 25.7894007 9.30912777 25.7985868 8.5345139 25.6871659 7.53436244 25.1136999 6.6281756 24.2265884 6.05045346 21.1363863 3.66619903 17.1137441 6.47185657 15.183115 8.14637946 15.4999055 8.11865557 15.8943994 8.10756601 16.3008477 8.10756601L16.3008477 8.11865557z"/>
    <path d="M21.8976545,14 L21.7317453,14 C20.2282974,13.9460401 18.8488081,13.1692707 18.044872,11.9239779 C16.3058968,9.13789615 13.7435199,9.1980707 13.6144794,9.20408815 C13.2751121,9.20408815 13.0000005,8.93467751 13.0000005,8.60234263 C12.9995906,8.28141159 13.2564429,8.01664342 13.5837554,8.0005971 C13.7250856,8.0005971 16.9818236,7.87423054 19.1140653,11.2981626 C19.6998301,12.1911401 20.6920004,12.7498721 21.7747588,12.7965089 C22.5858709,12.7965089 23.7963943,12.5497933 24.8471531,11.0694993 C24.9403383,10.9281794 25.0896762,10.8315097 25.2589602,10.8029277 C25.4282442,10.7743456 25.6020169,10.8164609 25.7381475,10.9190629 C25.8723789,11.0111746 25.9634681,11.1519856 25.9911625,11.3101883 C26.0188568,11.4683911 25.9808608,11.6308724 25.8856224,11.7615066 C25.0163445,13.1078251 23.5232889,13.9458948 21.8976545,14 Z"/>
    <path d="M27.3756635,13.9763789 C27.1856612,13.974128 27.0072011,13.8893038 26.8913054,13.746158 C25.8729115,12.5065067 23.3890239,11.1310841 23.3331365,11.1133748 C23.1310235,11.012867 23.0031442,10.815114 23.0000571,10.5982998 C22.99697,10.3814856 23.1191721,10.1805148 23.3183494,10.0748435 C23.5175266,9.96917219 23.7616139,9.9758122 23.9541084,10.0921383 C24.0658833,10.1511694 26.6988041,11.6033322 27.8662313,13.0436889 C28.0141922,13.2216791 28.0417656,13.4645267 27.9371659,13.6684312 C27.8325661,13.8723357 27.6143009,14.0012186 27.3756635,13.9999913 L27.3756635,13.9763789 Z"/>
  </g>
</svg>
