<svg xmlns="http://www.w3.org/2000/svg" width="50" fill="#FFF" height="50" viewBox="0 0 50 50">
  <path d="M11.3906169,17.1314091 C9.51643766,17.6095743 8.60114079,19.3483567 8.77548305,21.9565304 L10.2138067,21.8695913 C10.1266356,20.7828523 10.2573923,18.9136611 11.7393015,18.5659046 C16.6208847,17.3487569 18.2335506,15.653444 18.7565774,14.5667049 C19.2360186,14.6971136 19.802631,14.7840527 20.3692433,14.7840527 C20.3692433,14.7840527 20.4128289,14.7840527 20.4128289,14.7840527 L20.4564144,14.7840527 C20.4564144,14.7840527 20.5,14.7840527 20.5,14.7840527 C20.5,14.7840527 20.5435856,14.7840527 20.5435856,14.7840527 C21.197369,14.7840527 21.7639814,14.6971136 22.3305937,14.5232354 C22.8536205,15.5665048 24.4227008,17.3052873 29.3914552,18.5659046 C30.91695,18.9571307 31.0041211,20.8263218 30.91695,21.9130609 L32.3552736,22 C32.5296159,19.3918263 31.5707335,17.6530438 29.7401397,17.1748786 C25.0328987,16.0012005 23.8996741,14.5232354 23.6381607,13.9146615 C23.9868452,13.6973137 24.2919441,13.3930268 24.5534575,13.0887398 C26.7763213,10.6109748 26.3840513,6.35095774 26.3404657,5.95973169 C26.1225379,1.09114076 22.5485215,-0.0825374072 20.4564144,0.00440171649 C18.3643073,-0.0825374072 14.790291,1.09114076 14.5723632,5.95973169 C14.5287776,6.35095774 14.1800931,10.6109748 16.3593713,13.0887398 C16.6644703,13.4364963 17.0567404,13.7407833 17.4490105,14.0016006 C17.1003259,14.6101745 15.8363446,16.0012005 11.3906169,17.1314091 Z M16.0106868,6.04667081 C16.0106868,6.04667081 16.0106868,6.00320125 16.0106868,6.00320125 C16.2286146,1.74318419 19.3667753,1.39542769 20.2820722,1.39542769 C20.3256577,1.39542769 20.3692433,1.39542769 20.4128289,1.39542769 C20.4128289,1.39542769 20.4564144,1.39542769 20.4564144,1.39542769 C21.1537835,1.35195813 24.6842142,1.43889726 24.9021421,6.00320125 C24.9021421,6.00320125 24.9021421,6.04667081 24.9021421,6.04667081 C24.9021421,6.09014037 25.2944121,10.0024009 23.4638184,12.0889399 C22.7228638,12.9148616 21.7639814,13.3060876 20.4564144,13.3495572 C20.4564144,13.3495572 20.4564144,13.3495572 20.4128289,13.3495572 C20.4128289,13.3495572 20.4128289,13.3495572 20.4128289,13.3495572 C20.4128289,13.3495572 20.4128289,13.3495572 20.3692433,13.3495572 C19.1052619,13.3495572 18.1027939,12.9148616 17.3618393,12.0889399 C15.6184167,10.0458705 16.0106868,6.09014037 16.0106868,6.04667081 Z M35.2755065,13.4364963 C36.9317579,11.5673052 36.6702446,8.43749671 36.626659,8.13320978 C36.4523167,4.43829702 33.7500117,3.56890579 32.1373458,3.61237535 C30.5246799,3.56890579 27.8223749,4.43829702 27.6480326,8.13320978 C27.6044471,8.48096627 27.3429337,11.6107747 28.9991851,13.4364963 C29.217113,13.6538441 29.4350408,13.8711919 29.6529686,14.0450702 C29.4786264,14.262418 29.1299418,14.6101745 28.5197439,14.957931 L29.217113,16.2185483 C30.219581,15.653444 30.7426077,15.0883397 31.0041211,14.6101745 C31.3528056,14.6971136 31.7014902,14.7405832 32.0501747,14.7405832 C32.0501747,14.7405832 32.0937603,14.7405832 32.0937603,14.7405832 L32.1373458,14.7405832 C32.1373458,14.7405832 32.1809314,14.7405832 32.1809314,14.7405832 C32.1809314,14.7405832 32.2245169,14.7405832 32.2245169,14.7405832 C32.6603726,14.7405832 33.0526427,14.6536441 33.4013272,14.5667049 C33.8807684,15.3926266 35.1447498,16.6097743 38.5880094,17.435696 C39.5468918,17.6965134 39.5904774,18.9136611 39.5468918,19.6526437 L40.9852155,19.7395828 C41.1159722,17.7399829 40.3750176,16.3924265 38.9366939,16.0012005 C35.8857044,15.2622179 34.9704075,14.3058876 34.7088941,13.8711919 C34.926822,13.8277224 35.1011642,13.6538441 35.2755065,13.4364963 Z M32.1373458,13.3060876 C32.1373458,13.3060876 32.1373458,13.3060876 32.1373458,13.3060876 C32.1373458,13.3060876 32.1373458,13.3060876 32.1373458,13.3060876 C31.222049,13.3060876 30.5682655,13.0452703 30.0888243,12.480166 C28.8248429,11.0456704 29.0863563,8.26361846 29.0863563,8.26361846 C29.0863563,8.26361846 29.0863563,8.2201489 29.0863563,8.2201489 C29.217113,5.2642187 31.3528056,5.04687089 32.0065891,5.04687089 C32.0501747,5.04687089 32.0937603,5.04687089 32.0937603,5.04687089 C32.0937603,5.04687089 32.1373458,5.04687089 32.1373458,5.04687089 C32.616787,5.04687089 35.0139931,5.09034045 35.1447498,8.2201489 C35.1447498,8.2201489 35.1447498,8.26361846 35.1447498,8.26361846 C35.1447498,8.30708803 35.4062632,11.0456704 34.1422818,12.480166 C33.7064262,13.0452703 33.0090571,13.3060876 32.1373458,13.3060876 Z M5.72449351,13.4799659 C5.89883577,13.6973137 6.07317803,13.8277224 6.29110586,14.0016006 C6.02959247,14.4362962 5.07071004,15.349157 2.06330607,16.1316092 C0.624982427,16.4793656 -0.115972176,17.8703916 0.0147845189,19.8265219 L1.45310816,19.7395828 C1.40952259,19.0006002 1.45310816,17.7834525 2.41199059,17.5226351 C5.89883577,16.6532439 7.16281715,15.4795657 7.5986728,14.6536441 C7.94735732,14.7405832 8.33962741,14.8275223 8.77548305,14.8275223 C8.81906862,14.8275223 8.81906862,14.8275223 8.86265418,14.8275223 C8.86265418,14.8275223 8.86265418,14.8275223 8.90623975,14.8275223 C8.90623975,14.8275223 8.94982531,14.8275223 8.94982531,14.8275223 C9.3420954,14.8275223 9.69077992,14.7840527 9.99587887,14.6971136 C10.2573923,15.1752788 10.780419,15.7403831 11.782887,16.3054874 L12.4802561,15.0448701 C11.8264726,14.6971136 11.4777881,14.3493571 11.3470314,14.1320093 C11.5649592,13.9581311 11.8264726,13.7842528 12.0008149,13.5234354 C13.6570663,11.6542443 13.3955529,8.52443583 13.3519674,8.2201489 C13.1776251,4.52523615 10.4753201,3.65584491 8.86265418,3.69931447 C7.24998828,3.65584491 4.54768326,4.52523615 4.373341,8.2201489 C4.32975544,8.48096627 4.06824205,11.6107747 5.72449351,13.4799659 Z M5.81166464,8.26361846 C5.81166464,8.26361846 5.81166464,8.2201489 5.81166464,8.2201489 C5.94242134,5.2642187 8.07811402,5.04687089 8.73189749,5.04687089 C8.77548305,5.04687089 8.81906862,5.04687089 8.81906862,5.04687089 C8.81906862,5.04687089 8.86265418,5.04687089 8.86265418,5.04687089 C9.3420954,5.04687089 11.7393015,5.09034045 11.8700582,8.2201489 C11.8700582,8.2201489 11.8700582,8.26361846 11.8700582,8.26361846 C11.8700582,8.30708803 12.1315715,11.0456704 10.8675902,12.480166 C10.388149,13.0452703 9.69077992,13.3060876 8.81906862,13.3060876 C8.81906862,13.3060876 8.81906862,13.3060876 8.81906862,13.3060876 C8.81906862,13.3060876 8.81906862,13.3060876 8.81906862,13.3060876 C7.94735732,13.3060876 7.29357385,13.0452703 6.77054707,12.480166 C5.55015126,11.08914 5.81166464,8.30708803 5.81166464,8.26361846 Z" transform="translate(5 17)"/>
</svg>
