<svg xmlns="http://www.w3.org/2000/svg" width="50" height="50" viewBox="0 0 50 50">
  <g transform="translate(3 2)">
    <path d="M18.5515244,12.4617308 C21.915,12.4617308 24.6506707,9.71358974 24.6506707,6.33367949 C24.6506707,2.95487179 21.915,0.206730769 18.5515244,0.206730769 C15.1875,0.206730769 12.4518293,2.95487179 12.4518293,6.33367949 C12.4518293,9.71358974 15.1875,12.4617308 18.5515244,12.4617308 Z M18.5515244,1.43333333 C21.2421951,1.43333333 23.4312805,3.63239744 23.4312805,6.33423077 C23.4312805,9.03771795 21.2427439,11.2373333 18.5515244,11.2373333 C15.8603049,11.2373333 13.6717683,9.03826923 13.6717683,6.33423077 C13.6717683,3.63239744 15.8597561,1.43333333 18.5515244,1.43333333 Z"/>
    <path d="M18.4187195 7.11760256C19.0432317 7.31330769 19.0415854 7.36016667 19.0366463 7.56083333 19.0339024 7.68817949 18.9943902 7.72291026 18.9433537 7.75598718 18.7167073 7.89821795 18.2008537 7.88553846 17.8589634 7.73062821 17.5253049 7.57792308 17.1345732 7.72621795 16.9836585 8.06084615 16.8327439 8.39437179 16.9792683 8.78853846 17.312378 8.93958974 17.5028049 9.02779487 17.7289024 9.08678205 17.964878 9.12812821L17.964878 9.43629487C17.964878 9.80234615 18.2612195 10.1005897 18.6261585 10.1005897 18.9910976 10.1005897 19.287439 9.80234615 19.287439 9.43629487L19.287439 9.02944872C19.4103659 8.98644872 19.5376829 8.9500641 19.6457927 8.88115385 20.0925 8.59944872 20.3454878 8.1424359 20.3586585 7.59225641 20.3871951 6.3425 19.3620732 6.02165385 18.8110976 5.85075641 18.5312195 5.76310256 18.2409146 5.67269231 18.1569512 5.53983333 18.0653049 5.39264103 18.0872561 5.29561538 18.1168902 5.22615385 18.1909756 5.05360256 18.3967683 4.90530769 18.6294512 4.859 18.7935366 4.82426923 18.9493902 4.82261538 19.0712195 5.14621795 19.2007317 5.4885641 19.5821341 5.66001282 19.9240244 5.53266667 20.2653659 5.40201282 20.4376829 5.01887179 20.3081707 4.67542308 20.0935976 4.1065 19.6968293 3.73052564 19.2056707 3.58608974L19.2056707 2.98464103C19.2056707 2.61858974 18.9093293 2.32034615 18.5443902 2.32034615 18.1794512 2.32034615 17.8831098 2.61858974 17.8831098 2.98464103L17.8831098 3.71784615C17.4413415 3.92512821 17.0829878 4.27519231 16.9013415 4.70188462 16.6840244 5.21237179 16.7328659 5.76144872 17.0396341 6.24933333 17.3842683 6.79620513 17.9582927 6.97426923 18.4187195 7.11760256zM44.905061 22.8363077C44.9670732 22.4752179 44.7267073 22.1312179 44.3672561 22.0678205 44.0116463 22.0082821 43.6659146 22.2464359 43.6022561 22.6080769 43.5418902 22.9603462 43.547378 23.2756795 43.5528659 23.5292692 43.5589024 23.8319231 43.5545122 23.9725 43.5128049 24.0640128 43.3454268 24.0226667 43.097378 23.9399744 42.9162805 23.8787821 42.1479878 23.6229872 41.4861585 23.4019231 41.035061 23.8115256 40.8128049 24.0143974 40.7579268 24.2872821 40.6684756 24.7404359 40.5965854 25.0982179 40.4067073 26.0497308 40.152622 26.1533718 40.0242073 26.1710128 39.5522561 25.9157692 39.285 25.7680256 38.7856098 25.4912821 38.2642683 25.1974487 37.7555488 25.2310769 37.5634756 25.2421026 37.385122 25.3352692 37.2676829 25.4874231 37.202378 25.5723205 37.1683537 25.671 37.1491463 25.774641 35.4764634 20.0672179 28.3187195 15.7661154 19.7670732 15.7661154 16.4689024 15.7661154 13.2563415 16.4116667 10.4515244 17.6366154 9.53506098 17.010359 8.66030488 16.2336026 7.81189024 15.48L7.53804878 15.2379872C7.34597561 15.0665385 7.0677439 15.0367692 6.84439024 15.1597051 6.61939024 15.282641 6.49591463 15.5351282 6.53542683 15.7892692 6.62762195 16.3901667 6.6402439 17.0765128 6.65176829 17.7408077 6.66384146 18.421641 6.67591463 19.1206667 6.77359756 19.7700769 5.25402439 20.9266667 4.04396341 22.2844744 3.23670732 23.7365513 2.92445122 23.6378718 2.60396341 23.5871538 2.27853659 23.5871538 1.65402439 23.5871538 1.15463415 23.7723846.794085366 24.1356795.0762804878 24.8589615.0806707317 26.0789487.0856097561 27.4940897L.0861585366 27.8502179.0856097561 28.2074487C.0806707317 29.6209359.0762804878 30.8414744.794085366 31.5653077 1.25396341 32.0300385 1.97176829 32.2224359 2.8070122 32.0620128 3.6422561 33.9264487 5.14810976 35.4408205 7.23347561 36.5852821 7.23457317 36.9794487 7.24060976 37.3758205 7.24719512 37.7732949 7.26585366 38.8245897 7.28396341 39.9128205 7.19286585 40.9486795 7.16707317 41.2425128 7.33884146 41.5192564 7.61378049 41.6262051 9.63164634 42.4073718 11.3520732 42.7927179 12.834878 42.7927179 13.2206707 42.7927179 13.59 42.7668077 13.945061 42.7138846 14.1053049 42.6912821 14.2518293 42.6085897 14.3560976 42.484 14.9520732 41.7695385 15.0497561 40.8301538 15.1348171 40.0004744 15.1737805 39.6245 15.2110976 39.2694744 15.2884756 38.9817051 15.2972561 38.9486282 15.2912195 38.9166538 15.295061 38.8841282 16.690061 39.040141 18.1789024 39.1222821 19.7654268 39.1222821 21.6137195 39.1222821 23.3484146 38.983359 24.9667683 38.7325256 25.0090244 38.9646154 25.0414024 39.2132436 25.0693902 39.4850256 25.155 40.3130513 25.2526829 41.2529872 25.8486585 41.9674487 25.952378 42.093141 26.0989024 42.1741795 26.2596951 42.1984359 26.6142073 42.2502564 26.9835366 42.2761667 27.3693293 42.2761667 28.8526829 42.2761667 30.5731098 41.8908205 32.5909756 41.1091026 32.8659146 41.0027051 33.0371341 40.7270641 33.0118902 40.4315769 32.9207927 39.3973718 32.9389024 38.309141 32.957561 37.255641 32.9657927 36.8124103 32.9729268 36.3697308 32.9729268 35.9292564 32.9729268 35.9242949 32.9696341 35.9193333 32.9690854 35.9143718 35.8584146 34.0367051 37.5190244 31.4313462 37.5190244 28.3298333 37.5190244 28.3044744 37.5140854 28.2802179 37.5140854 28.254859 37.6792683 28.1297179 37.7868293 27.9362179 37.7835366 27.7206667 37.8181098 27.606 37.9465244 27.3424872 38.0332317 27.1644231 38.1133537 27.000141 38.1846951 26.8523974 38.245061 26.7162308 38.3866463 26.7873462 38.5337195 26.8678333 38.6462195 26.9306795 39.2581098 27.2686154 39.9528659 27.652859 40.5982317 27.3981667 41.5596951 27.0238462 41.8121341 25.757 41.9630488 25.0017436 41.9646951 24.9907179 41.9668902 24.9818974 41.9685366 24.9719744 42.1425 25.0204872 42.3488415 25.0899487 42.497561 25.1395641 43.2235976 25.3826795 43.7959756 25.5739744 44.2234756 25.2332821 44.8979268 24.6952308 44.8836585 24.0336923 44.8737805 23.5017051 44.869939 23.2762308 44.8655488 23.0612308 44.905061 22.8363077zM13.8221341 39.864859C13.7628659 40.4359872 13.7019512 41.0247564 13.4769512 41.4354615 12.1576829 41.5644615 10.4992683 41.2695256 8.54835366 40.5600256 8.60323171 39.6189872 8.58621951 38.6713333 8.57085366 37.750141 8.56810976 37.578141 8.56756098 37.4094487 8.56481707 37.2374487 10.1228049 37.9039487 11.9431098 38.3973462 13.9993902 38.7132308 13.9066463 39.083141 13.8616463 39.4784103 13.8221341 39.864859zM31.6585976 40.0423718C29.7082317 40.7518718 28.0536585 41.047359 26.73 40.9189103 26.505 40.5082051 26.4440854 39.9194359 26.3848171 39.3483077 26.3551829 39.0632949 26.3173171 38.7777308 26.2668293 38.4965769 28.2962195 38.0814615 30.1039024 37.4728462 31.6432317 36.6845128 31.6404878 36.8675385 31.639939 37.0500128 31.6366463 37.234141 31.6207317 38.1553333 31.6042683 39.1029872 31.6585976 40.0423718zM19.7670732 37.9028462C14.7193902 37.9028462 5.92463415 37.0213462 3.735 31.1171154 3.64445122 30.8717949 3.41231707 30.719641 3.16536585 30.719641 3.09731707 30.719641 3.02817073 30.7312179 2.96067073 30.7554744 2.70109756 30.8480897 2.48432927 30.891641 2.27908537 30.891641 1.84335366 30.891641 1.70176829 30.7494103 1.65512195 30.7031026 1.29402439 30.3387051 1.29731707 29.3056026 1.30115854 28.2107564L1.30170732 27.8491154 1.30115854 27.4891282C1.29731707 26.3948333 1.29347561 25.3606282 1.65512195 24.9967821 1.70176829 24.9510256 1.84280488 24.8076923 2.27908537 24.8076923 2.6045122 24.8076923 2.92719512 24.8909359 3.23780488 25.0530128 3.38378049 25.1307436 3.55335366 25.1450769 3.7097561 25.0921538 3.86560976 25.0403333 3.99457317 24.9273205 4.06536585 24.7795769 4.8204878 23.2166923 6.11012195 21.7469744 7.79432927 20.5291923 7.99134146 20.3875128 8.08518293 20.1421923 8.03359756 19.9034872 7.89530488 19.2667564 7.88213415 18.5142564 7.86731707 17.7187564 7.86402439 17.526359 7.86018293 17.3350641 7.8552439 17.1410128 8.55878049 17.7501795 9.28810976 18.343359 10.0668293 18.8428205 10.2402439 18.9541795 10.4581098 18.9690641 10.6457927 18.8841667 13.3655488 17.6426795 16.5193902 16.9861026 19.7670732 16.9861026 28.8861585 16.9861026 36.305122 22.0749872 36.305122 28.3298333 36.3045732 34.9424615 27.9987805 37.9028462 19.7670732 37.9028462z"/>
    <path d="M24.7554878,18.8362051 C24.3060366,18.7557179 23.8681098,18.644359 23.4285366,18.5335513 C22.5702439,18.3174487 21.6817683,18.0941795 20.6879268,18.0737821 C19.2879878,18.0478718 18.1728659,18.1289103 15.9645732,18.6680641 C15.610061,18.7546154 15.3921951,19.1151538 15.4778049,19.4707308 C15.5645122,19.826859 15.9195732,20.0429615 16.2768293,19.9586154 C18.3567073,19.4508846 19.3543902,19.3737051 20.6610366,19.4018205 C21.5056098,19.418359 22.2832317,19.6146154 23.1075,19.8224487 C23.5761585,19.9404231 24.0442683,20.0578462 24.5244512,20.1432949 C24.5634146,20.1504615 24.6029268,20.1543205 24.6413415,20.1543205 C24.9552439,20.1543205 25.2345732,19.9277436 25.2910976,19.6063462 C25.3547561,19.2452564 25.1154878,18.9001538 24.7554878,18.8362051 Z"/>
    <ellipse cx="8.573" cy="24.751" rx="1.267" ry="1.217"/>
  </g>
</svg>
